<?xml version="1.0" encoding="UTF-8"?>
<svg version="1.1" xmlns="http://www.w3.org/2000/svg" width="499" height="575">
<path d="M0 0 C164.67 0 329.34 0 499 0 C499 189.75 499 379.5 499 575 C334.33 575 169.66 575 0 575 C0 385.25 0 195.5 0 0 Z " fill="#FDFDFD" transform="translate(0,0)"/>
<path d="M0 0 C164.67 0 329.34 0 499 0 C499 189.75 499 379.5 499 575 C334.33 575 169.66 575 0 575 C0 385.25 0 195.5 0 0 Z M25 167 C24.26138182 169.72075572 24.26138182 169.72075572 24.3707943 172.67691803 C24.35775556 173.81589334 24.34471682 174.95486865 24.33128297 176.12835836 C24.34243658 177.37494175 24.35359019 178.62152514 24.36508179 179.90588379 C24.35931998 181.24720648 24.35137845 182.58852129 24.34144557 183.92981958 C24.32055633 187.614596 24.33089627 191.29872567 24.34637666 194.98350453 C24.35767797 198.95769098 24.34023356 202.93176531 24.32647705 206.90592957 C24.30422697 214.69086264 24.30905365 222.47555488 24.32354026 230.26049745 C24.33482556 236.58663371 24.33636647 242.9127024 24.33092117 249.23884583 C24.33015501 250.13871716 24.32938884 251.0385885 24.32859946 251.96572867 C24.32700086 253.79371736 24.32537979 255.62170604 24.3237365 257.44969469 C24.30947382 274.59660808 24.32587986 291.74338788 24.35273834 308.89027935 C24.3750776 323.60774664 24.37119761 338.32501674 24.34814453 353.04248047 C24.32139568 370.12741961 24.31084717 387.21224162 24.32620585 404.29719877 C24.32779862 406.11851722 24.32937047 407.93983569 24.33092117 409.76115417 C24.33169255 410.65731151 24.33246393 411.55346885 24.33325868 412.47678247 C24.33757843 418.79638391 24.33028321 425.11591115 24.31852341 431.4355011 C24.30451002 439.1355092 24.30827377 446.8352624 24.33492713 454.53524125 C24.34808113 458.46505523 24.35319117 462.39444401 24.33668137 466.32425499 C24.32180083 469.92060381 24.32993718 473.51613267 24.35656913 477.11240691 C24.36481562 479.03215261 24.34845907 480.95195506 24.33128297 482.87164164 C24.35084108 484.5801046 24.35084108 484.5801046 24.3707943 486.32308197 C24.37160606 487.30574586 24.37241782 488.28840976 24.37325418 489.30085135 C25.27414171 493.18062093 26.83125834 494.63565332 30 497 C32.70310959 497.49298613 34.77728303 497.67484789 37.47291565 497.6292057 C38.22007131 497.63647291 38.96722697 497.64374011 39.73702371 497.65122753 C42.24910138 497.66952429 44.75966115 497.65210172 47.27172852 497.63491821 C49.08740045 497.64067758 50.90306656 497.64861746 52.71872044 497.65855443 C57.71462108 497.67947635 62.71004573 497.6690883 67.70594835 497.65362334 C73.09117939 497.64233562 78.47632713 497.65975972 83.86154175 497.67352295 C94.41375336 497.69578745 104.96578743 497.69093984 115.51800609 497.67645974 C124.09194445 497.66518014 132.66583296 497.66363106 141.23977661 497.66907883 C142.45881449 497.66984499 143.67785237 497.67061116 144.9338308 497.67140054 C147.41007449 497.67299912 149.88631816 497.67462019 152.36256182 497.6762635 C175.59700081 497.69053041 198.83134125 497.67411346 222.06576407 497.64726166 C242.01361864 497.62492206 261.96132774 497.62880193 281.90917969 497.65185547 C305.05894715 497.6785968 328.20862818 497.68915703 351.35840893 497.67379415 C353.8256804 497.67220136 356.29295189 497.67062951 358.76022339 497.66907883 C360.58126842 497.66792176 360.58126842 497.66792176 362.43910223 497.66674132 C371.00541253 497.66241932 379.57166814 497.66972164 388.13796997 497.68147659 C398.57363897 497.6954816 409.00911986 497.69174371 419.44476724 497.66507287 C424.77197771 497.65190784 430.09887427 497.64682811 435.42608261 497.66331863 C440.29914549 497.6781755 445.17160232 497.67010059 450.0446099 497.64343087 C451.81101882 497.63782777 453.57747854 497.64072712 455.34385502 497.65280981 C457.73900021 497.66794163 460.13204993 497.65250099 462.52708435 497.6292057 C463.56410588 497.64676445 463.56410588 497.64676445 464.62207735 497.66467792 C468.28833889 497.59304422 469.95955456 497.03016235 472.92773187 494.81663269 C475.27612621 491.62468848 475.62598651 490.21580972 475.6292057 486.30467129 C475.64224444 485.16159588 475.65528318 484.01852048 475.66871703 482.84080642 C475.65756342 481.58964997 475.64640981 480.33849351 475.63491821 479.04942322 C475.64067998 477.70326307 475.64862147 476.35711078 475.65855443 475.01097494 C475.67944399 471.31286712 475.6691036 467.6154037 475.65362334 463.91729343 C475.64232228 459.9288112 475.65976624 455.94044071 475.67352295 451.95198059 C475.69577268 444.13930932 475.69094669 436.32687802 475.67645974 428.51419728 C475.66517511 422.16612268 475.66363323 415.8181154 475.66907883 409.47003365 C475.66984499 408.56709822 475.67061116 407.6641628 475.67140054 406.7338657 C475.67299914 404.89967427 475.6746202 403.06548287 475.6762635 401.23129148 C475.69052587 384.02670451 475.67412021 366.82225069 475.64726166 349.61768556 C475.62491864 334.84816577 475.62880555 320.07884243 475.65185547 305.30932617 C475.67859834 288.16543309 475.68915652 271.02165671 475.67379415 253.87774569 C475.67220137 252.05054734 475.67062952 250.22334897 475.66907883 248.39615059 C475.66830745 247.49708843 475.66753607 246.59802627 475.66674132 245.6717198 C475.66242005 239.32910634 475.66971996 232.98656678 475.68147659 226.64396477 C475.69548318 218.91757796 475.69174046 211.1914452 475.66507287 203.46508759 C475.65191025 199.52122109 475.64682346 195.57777854 475.66331863 191.63391495 C475.6781812 188.02589969 475.67009275 184.41870265 475.64343087 180.810762 C475.6351698 178.88232399 475.65155682 176.95382951 475.66871703 175.02545017 C475.64915892 173.31474868 475.64915892 173.31474868 475.6292057 171.56948757 C475.62839394 170.5834062 475.62758218 169.59732482 475.62674582 168.58136219 C475.17295817 165.82657167 475.17295817 165.82657167 472.92773187 163.68354189 C469.37102724 161.63832002 466.51801596 161.44143298 462.52708435 161.49384212 C461.77992869 161.48772877 461.03277303 161.48161541 460.26297629 161.47531679 C457.75108968 161.4596753 455.24016289 161.47259916 452.72827148 161.4853363 C450.91260176 161.4800129 449.09693644 161.47294841 447.28127956 161.46428925 C442.28544266 161.44560779 437.28990108 161.45198581 432.29405165 161.46244228 C426.90882731 161.46941865 421.52366461 161.4534483 416.13845825 161.44044495 C405.58627255 161.41877388 395.03419456 161.41893974 384.48199391 161.42707049 C375.9080598 161.43336344 367.33415716 161.43223993 358.76022339 161.42579842 C357.54118551 161.42489676 356.32214763 161.42399511 355.0661692 161.42306613 C352.58992552 161.42121498 350.11368184 161.41935242 347.63743818 161.41747857 C324.40301599 161.40088943 301.16865448 161.40962896 277.93423593 161.42646415 C256.66300646 161.44116382 235.3919182 161.42653086 214.12070692 161.39769398 C192.29431952 161.36832415 170.46799737 161.35732055 148.64159107 161.36687618 C146.1743196 161.36789877 143.70704811 161.36889338 141.23977661 161.3698597 C140.02574659 161.37033609 138.81171657 161.37081248 137.56089777 161.3713033 C128.99458345 161.37347053 120.42833069 161.36364702 111.86203003 161.34908867 C101.4263685 161.33160119 90.9908871 161.33163118 80.55523276 161.35444032 C75.22801725 161.36561482 69.90111951 161.36867253 64.57391739 161.35013962 C59.70086302 161.33340438 54.82840531 161.33959105 49.9553901 161.36435641 C48.18897772 161.36926304 46.42251785 161.36566097 44.65614498 161.35286897 C42.26100874 161.33677008 39.86795654 161.35125263 37.47291565 161.37358761 C36.43589412 161.35560009 36.43589412 161.35560009 35.37792265 161.33724919 C30.26783937 161.43504945 28.0001684 162.9235758 25 167 Z " fill="#ECECEC" transform="translate(0,0)"/>
<path d="M0 0 C164.67 0 329.34 0 499 0 C499 40.26 499 80.52 499 122 C334.33 122 169.66 122 0 122 C0 81.74 0 41.48 0 0 Z " fill="#F4BA13" transform="translate(0,0)"/>
<path d="M0 0 C154.44 0 308.88 0 468 0 C468 19.14 468 38.28 468 58 C313.56 58 159.12 58 0 58 C0 38.86 0 19.72 0 0 Z " fill="#F4F4F4" transform="translate(16,517)"/>
<path d="M0 0 C0.70154945 -0.00436032 1.4030989 -0.00872064 2.12590742 -0.0132131 C4.49455188 -0.02422751 6.86262127 -0.013719 9.23126221 -0.00342751 C10.93938369 -0.00688164 12.64750296 -0.01164454 14.35561752 -0.01760924 C19.06335938 -0.03018257 23.77091981 -0.02392021 28.47866249 -0.01465058 C33.55030194 -0.00788625 38.62190932 -0.01832828 43.69354248 -0.02659035 C53.63437724 -0.03995792 63.57514421 -0.03703651 73.51598167 -0.02835242 C81.59226413 -0.02158815 89.66852754 -0.0206537 97.74481201 -0.02392387 C98.89253893 -0.02438357 100.04026584 -0.02484327 101.22277236 -0.0253169 C103.55406857 -0.02627604 105.88536478 -0.02724868 108.21666098 -0.02823468 C130.09758455 -0.03679743 151.97847047 -0.02694057 173.85938787 -0.01083358 C192.65035704 0.0025704 211.44127061 0.00024256 230.23223877 -0.01358986 C252.03275087 -0.02963006 273.83322993 -0.03597337 295.6337471 -0.02675307 C297.9566574 -0.02579738 300.27956771 -0.02485427 302.60247803 -0.02392387 C304.31702985 -0.02322963 304.31702985 -0.02322963 306.06621909 -0.02252137 C314.13650029 -0.01992679 322.20676061 -0.02431253 330.27703857 -0.03136253 C340.10671046 -0.03976042 349.93631044 -0.03753355 359.76597404 -0.0215203 C364.78501724 -0.01361447 369.80394038 -0.01058518 374.82298279 -0.02046776 C379.41215326 -0.02936751 384.00109171 -0.0245603 388.59024096 -0.0085351 C390.25573639 -0.00516717 391.92125118 -0.00692612 393.58673429 -0.01416247 C395.84053656 -0.02320838 398.09353089 -0.01400773 400.34729004 0 C402.22959257 0.00073059 402.22959257 0.00073059 404.14992142 0.00147593 C407.17364502 0.37752342 407.17364502 0.37752342 409.07603073 1.71068895 C410.85513707 4.41243565 410.56325022 6.93780232 410.57208252 10.12752342 C410.5749527 10.78204491 410.57782288 11.43656639 410.58078003 12.11092186 C410.5828187 13.49276661 410.57730248 14.87464035 410.5647583 16.25642967 C410.54869938 18.37036793 410.56461103 20.48239456 410.58380127 22.59627342 C410.5818188 23.94002764 410.57797504 25.28378066 410.57208252 26.62752342 C410.56869873 27.84955467 410.56531494 29.07158592 410.56182861 30.33064842 C410.17364502 33.37752342 410.17364502 33.37752342 409.07603073 35.0443579 C406.20353077 37.05736603 403.82860366 36.75369563 400.34729004 36.75504684 C399.64574059 36.75940717 398.94419114 36.76376749 398.22138262 36.76825994 C395.85273816 36.77927435 393.48466877 36.76876585 391.11602783 36.75847435 C389.40790634 36.76192848 387.69978708 36.76669139 385.99167252 36.77265608 C381.28393066 36.78522942 376.57637023 36.77896705 371.86862755 36.76969743 C366.7969881 36.76293309 361.72538071 36.77337513 356.65374756 36.78163719 C346.71291279 36.79500476 336.77214583 36.79208335 326.83130836 36.78339927 C318.75502591 36.776635 310.6787625 36.77570055 302.60247803 36.77897072 C301.45475111 36.77943042 300.3070242 36.77989012 299.12451768 36.78036375 C296.79322147 36.78132288 294.46192526 36.78229552 292.13062906 36.78328152 C270.24970549 36.79184427 248.36881957 36.78198741 226.48790216 36.76588042 C207.696933 36.75247644 188.90601943 36.75480429 170.11505127 36.7686367 C148.31453917 36.7846769 126.51406011 36.79102022 104.71354294 36.78179991 C102.39063263 36.78084422 100.06772233 36.77990111 97.74481201 36.77897072 C96.03026019 36.77827648 96.03026019 36.77827648 94.28107095 36.77756821 C86.21078975 36.77497364 78.14052943 36.77935937 70.07025146 36.78640938 C60.24057958 36.79480727 50.4109796 36.79258039 40.58131599 36.77656715 C35.5622728 36.76866131 30.54334966 36.76563202 25.52430725 36.7755146 C20.93513678 36.78441436 16.34619833 36.77960714 11.75704908 36.76358195 C10.09155365 36.76021401 8.42603886 36.76197296 6.76055574 36.76920931 C4.50675348 36.77825522 2.25375915 36.76905458 0 36.75504684 C-1.25486835 36.75455979 -2.50973671 36.75407273 -3.80263138 36.75357091 C-6.82635498 36.37752342 -6.82635498 36.37752342 -8.72874069 35.0443579 C-10.50784703 32.3426112 -10.21596018 29.81724453 -10.22479248 26.62752342 C-10.22766266 25.97300194 -10.23053284 25.31848045 -10.23348999 24.64412498 C-10.23552866 23.26228023 -10.23001244 21.88040649 -10.21746826 20.49861717 C-10.20140934 18.38467892 -10.21732099 16.27265229 -10.23651123 14.15877342 C-10.23452876 12.81501921 -10.230685 11.47126618 -10.22479248 10.12752342 C-10.22140869 8.90549217 -10.2180249 7.68346092 -10.21453857 6.42439842 C-9.82635498 3.37752342 -9.82635498 3.37752342 -8.72874069 1.71068895 C-5.85624073 -0.30231919 -3.48131362 0.00135122 0 0 Z " fill="#F5BA14" transform="translate(49.82635498046875,389.6224765777588)"/>
<path d="M0 0 C1.11990346 0.00394052 1.11990346 0.00394052 2.26243123 0.00796065 C3.05205559 0.0068068 3.84167994 0.00565296 4.65523231 0.00446415 C7.33532598 0.00179015 10.01536112 0.00632604 12.69545183 0.01075396 C14.6225968 0.01031842 16.54974171 0.00944383 18.4768863 0.00816479 C23.79916941 0.00591649 29.12143259 0.00994567 34.44371316 0.01494285 C40.17312879 0.01924239 45.90254321 0.01780129 51.63196 0.01704058 C61.56740852 0.01651503 71.50285049 0.01966508 81.43829736 0.02527842 C95.80346671 0.03338921 110.16863287 0.03600821 124.53380426 0.03726641 C147.83768352 0.03945759 171.14155921 0.04611091 194.44543657 0.05556902 C217.08931659 0.06474868 239.73319568 0.07183463 262.37707719 0.07607684 C263.07466978 0.07620836 263.77226236 0.07633989 264.49099412 0.0764754 C271.49630225 0.07779388 278.5016104 0.0790697 285.50691855 0.08031426 C344.28663846 0.090761 403.06635483 0.10848743 461.84607133 0.13100848 C461.84607133 6.73100848 461.84607133 13.33100848 461.84607133 20.13100848 C307.40607133 20.13100848 152.96607133 20.13100848 -6.15392867 20.13100848 C-6.15392867 0.02059051 -6.15392867 0.02059051 0 0 Z " fill="#E6E6E6" transform="translate(22.1539286673069,121.8689915239811)"/>
<path d="M0 0 C1.04671875 -0.02578125 2.0934375 -0.0515625 3.171875 -0.078125 C6.68472094 0.29634081 8.53670682 0.99142078 11.25 3.25 C11.66796875 5.40625 11.66796875 5.40625 11.4375 7.75 C11.0844363 11.70569635 11.0844363 11.70569635 13.25 15.25 C13.61467846 18.1674277 13.72575659 19.61565787 11.9375 22 C8.21697251 24.75594629 4.51372862 24.35333696 0.0625 24.3125 C-1.20980469 24.30347656 -2.48210937 24.29445313 -3.79296875 24.28515625 C-5.25669922 24.26775391 -5.25669922 24.26775391 -6.75 24.25 C-6.77887236 20.43751574 -6.79675492 16.6250593 -6.8125 12.8125 C-6.82087891 11.72388672 -6.82925781 10.63527344 -6.83789062 9.51367188 C-6.84111328 8.47919922 -6.84433594 7.44472656 -6.84765625 6.37890625 C-6.85289307 5.42056885 -6.85812988 4.46223145 -6.86352539 3.47485352 C-6.63876614 -0.9299444 -3.79283598 0.05550492 0 0 Z " fill="#FDF9EA" transform="translate(231.75,25.75)"/>
<path d="M0 0 C13.53846154 0 13.53846154 0 18.875 4.625 C20.65693041 8.38685308 20.76501405 11.92721089 20 16 C16.82962808 20.41930631 13.12673994 22.34901595 8 24 C5.36 24 2.72 24 0 24 C0 16.08 0 8.16 0 0 Z " fill="#FDF8EA" transform="translate(306,26)"/>
<path d="M0 0 C1.32 0 2.64 0 4 0 C4.14611313 3.37453898 4.23433467 6.74825766 4.3125 10.125 C4.35439453 11.07632813 4.39628906 12.02765625 4.43945312 13.0078125 C4.5776427 20.96753208 4.5776427 20.96753208 1.69921875 24.61328125 C-1.65502413 27.57918921 -3.5463137 28.07953011 -8 28 C-10.875 26.75 -10.875 26.75 -13 25 C-13.33 24.01 -13.66 23.02 -14 22 C-10.37 22.33 -6.74 22.66 -3 23 C-2.01 21.35 -1.02 19.7 0 18 C-0.66 18.33 -1.32 18.66 -2 19 C-6.29322859 19.48602588 -8.32082639 19.46241608 -11.9375 17 C-14.22884945 13.66712807 -14.76573062 11.90166762 -14.47265625 7.94140625 C-13.58944986 4.31369073 -12.10340188 2.9633767 -9 1 C-5.89455648 0.89613901 -3.02758842 1.33379863 0 2 C0 1.34 0 0.68 0 0 Z " fill="#FDF8EA" transform="translate(289,31)"/>
<path d="M0 0 C1.32 0 2.64 0 4 0 C4.14567407 3.56206722 4.23419196 7.12336551 4.3125 10.6875 C4.35439453 11.69490234 4.39628906 12.70230469 4.43945312 13.74023438 C4.56305422 21.2304607 4.56305422 21.2304607 1.69921875 25.14453125 C-1.68487478 27.47078946 -3.90008562 28 -8 28 C-10.9375 26.75 -10.9375 26.75 -13 25 C-13 24.01 -13 23.02 -13 22 C-12.01 21.67 -11.02 21.34 -10 21 C-10 21.66 -10 22.32 -10 23 C-5.34947128 23.26932521 -5.34947128 23.26932521 -1 22 C-0.34786708 19.97536745 -0.34786708 19.97536745 0 18 C-0.66 18.33 -1.32 18.66 -2 19 C-8.26519337 19.5801105 -8.26519337 19.5801105 -11.375 17.125 C-14.27394168 13.33407627 -14.48603989 10.77939224 -14 6 C-11.9375 3.0625 -11.9375 3.0625 -9 1 C-5.53855822 0.64798897 -3.13871188 0.43064406 0 2 C0 1.34 0 0.68 0 0 Z " fill="#FDF7EB" transform="translate(387,31)"/>
<path d="M0 0 C7.39394458 0.06500171 7.39394458 0.06500171 10.625 2.5 C12.8125 5.375 12.8125 5.375 13.5 8.375 C12.59921289 12.3057074 10.87030953 13.82682539 7.8125 16.375 C5.40704362 17.57772819 3.86253047 17.47571472 1.1875 17.4375 C-0.03839844 17.42396484 -0.03839844 17.42396484 -1.2890625 17.41015625 C-1.91554687 17.39855469 -2.54203125 17.38695313 -3.1875 17.375 C-3.1875 19.355 -3.1875 21.335 -3.1875 23.375 C-4.5075 23.375 -5.8275 23.375 -7.1875 23.375 C-7.21637512 19.72918313 -7.23425585 16.08339537 -7.25 12.4375 C-7.25837891 11.39658203 -7.26675781 10.35566406 -7.27539062 9.28320312 C-7.28022461 7.79916992 -7.28022461 7.79916992 -7.28515625 6.28515625 C-7.29039307 5.36871338 -7.29562988 4.45227051 -7.30102539 3.50805664 C-7.06531631 -0.92073954 -3.75674862 0.11036776 0 0 Z " fill="#FEF9EC" transform="translate(199.1875,71.625)"/>
<path d="M0 0 C2.69990662 1.79993774 4.5418865 3.083773 6 6 C6.37599902 9.98558966 6.36641508 12.32579625 4.4375 15.875 C1.26644159 18.63951246 -0.83265954 18.92558321 -5 19 C-8.39808026 17.89791992 -8.94731917 17.07902124 -11 14 C-11.8476609 9.23525349 -11.65866879 5.94925797 -8.875 1.9375 C-5.46618264 -0.35974648 -4.02516948 -0.75471928 0 0 Z " fill="#FDF7E7" transform="translate(242,78)"/>
<path d="M0 0 C2.69990662 1.79993774 4.5418865 3.083773 6 6 C6.59873168 11.26883876 5.25400021 13.8846468 2 18 C-0.88861709 19.44430855 -2.79647701 19.37688506 -6 19 C-9.0140178 16.96881409 -10.6726873 15.45970907 -11.484375 11.83984375 C-11.74127589 7.5652983 -11.36004541 5.51888897 -8.875 1.9375 C-5.46618264 -0.35974648 -4.02516948 -0.75471928 0 0 Z " fill="#FDF7E6" transform="translate(267,32)"/>
<path d="M0 0 C3.16915458 1.94470849 4.75140617 2.97379253 5.640625 6.64453125 C5.75921875 7.42183594 5.8778125 8.19914062 6 9 C4.39658445 9.33692785 2.79223445 9.66941093 1.1875 10 C0.29417969 10.185625 -0.59914063 10.37125 -1.51953125 10.5625 C-4 11 -4 11 -7 11 C-6.67 11.99 -6.34 12.98 -6 14 C-3.08347826 14.16681109 -3.08347826 14.16681109 0 14 C0.66 13.34 1.32 12.68 2 12 C4.125 12.375 4.125 12.375 6 13 C3.76950953 16.47956513 2.59657608 17.82645059 -1.4375 19 C-5.37108373 19 -6.95425175 18.41868244 -10 16 C-11.74896809 12.50206382 -11.69570849 8.80670683 -11 5 C-8.36153164 1.13969058 -4.6784934 -1.07965232 0 0 Z " fill="#FDF8E7" transform="translate(340,32)"/>
<path d="M0 0 C3.16915458 1.94470849 4.75140617 2.97379253 5.640625 6.64453125 C5.75921875 7.42183594 5.8778125 8.19914062 6 9 C4.39658445 9.33692785 2.79223445 9.66941093 1.1875 10 C0.29417969 10.185625 -0.59914063 10.37125 -1.51953125 10.5625 C-4 11 -4 11 -7 11 C-6.67 11.99 -6.34 12.98 -6 14 C-3.08347826 14.16681109 -3.08347826 14.16681109 0 14 C0.66 13.34 1.32 12.68 2 12 C4.125 12.375 4.125 12.375 6 13 C3.76950953 16.47956513 2.59657608 17.82645059 -1.4375 19 C-5.37108373 19 -6.95425175 18.41868244 -10 16 C-11.74896809 12.50206382 -11.69570849 8.80670683 -11 5 C-8.36153164 1.13969058 -4.6784934 -1.07965232 0 0 Z " fill="#FDF8E7" transform="translate(120,32)"/>
<path d="M0 0 C2.4375 2.375 2.4375 2.375 4 5 C4 5.99 4 6.98 4 8 C-0.29 8.66 -4.58 9.32 -9 10 C-8.01 11.485 -8.01 11.485 -7 13 C-4.5 13.41666667 -4.5 13.41666667 -2 13 C-1.34 12.34 -0.68 11.68 0 11 C2.125 11.375 2.125 11.375 4 12 C1.76950953 15.47956513 0.59657608 16.82645059 -3.4375 18 C-7.37108373 18 -8.95425175 17.41868244 -12 15 C-13.60086627 11.79826746 -13.49917089 8.47422941 -13 5 C-9.24993503 -0.87510179 -6.74881255 -1.62902372 0 0 Z " fill="#FDF7E7" transform="translate(271,79)"/>
<path d="M0 0 C2.375 1.8125 2.375 1.8125 4 4 C4 5.32 4 6.64 4 8 C-0.29 8.66 -4.58 9.32 -9 10 C-8.01 11.485 -8.01 11.485 -7 13 C-3.91634129 13.2502157 -3.91634129 13.2502157 -1 13 C-0.67 12.34 -0.34 11.68 0 11 C1.32 11 2.64 11 4 11 C3.14382686 13.71121495 2.54750525 15.55388461 0.3125 17.375 C-3.15005353 18.31082528 -5.55018394 17.92405787 -9 17 C-12.15850062 14.24643536 -12.90662809 12.65360338 -13.5 8.5 C-12.92072788 4.44509518 -11.91261088 2.82939343 -9 0 C-5.41563853 -1.19478716 -3.63093708 -0.96330984 0 0 Z " fill="#FDF7E8" transform="translate(184,33)"/>
<path d="M0 0 C1.33804687 0.04060547 1.33804687 0.04060547 2.703125 0.08203125 C3.37859375 0.11683594 4.0540625 0.15164062 4.75 0.1875 C4.8579859 2.62618168 4.93726589 5.06009133 5 7.5 C5.05027344 8.53543945 5.05027344 8.53543945 5.1015625 9.59179688 C5.20013905 14.69313331 5.20013905 14.69313331 2.9609375 17.15234375 C-0.19133515 18.62823112 -2.81880069 18.44166291 -6.25 18.1875 C-6.91 17.8575 -7.57 17.5275 -8.25 17.1875 C-8.25 16.5275 -8.25 15.8675 -8.25 15.1875 C-4.95 15.1875 -1.65 15.1875 1.75 15.1875 C1.75 14.1975 1.75 13.2075 1.75 12.1875 C1.028125 12.414375 0.30625 12.64125 -0.4375 12.875 C-4.02631468 13.27375719 -5.37806404 12.26167597 -8.25 10.1875 C-9.25 9.1875 -9.25 9.1875 -9.5625 6.3125 C-9.25 3.1875 -9.25 3.1875 -7.55859375 1.50390625 C-4.79900245 -0.06966781 -3.14995496 -0.12434033 0 0 Z " fill="#30343A" transform="translate(297.25,186.8125)"/>
<path d="M0 0 C2.4164124 0.48328248 4.65832183 1.21944061 7 2 C7.66 1.34 8.32 0.68 9 0 C11.33746522 0.30300475 13.67085177 0.63858045 16 1 C17.34164079 0.7018576 18.67851173 0.37756808 20 0 C20.99 0.33 21.98 0.66 23 1 C23.845625 0.814375 24.69125 0.62875 25.5625 0.4375 C26.7690625 0.2209375 26.7690625 0.2209375 28 0 C30 2 30 2 30.1875 4.5625 C30 7 30 7 29 8 C27.33391013 8.04384447 25.66619446 8.0396713 24 8 C23.01 8 22.02 8 21 8 C13.66666667 8 6.33333333 8 -1 8 C0.32 7.67 1.64 7.34 3 7 C2.67 5.35 2.34 3.7 2 2 C1.01 1.67 0.02 1.34 -1 1 C-0.67 0.67 -0.34 0.34 0 0 Z " fill="#C5C6C8" transform="translate(216,452)"/>
<path d="M0 0 C8.06015038 0.36090226 8.06015038 0.36090226 12.125 3.125 C14 6 14 6 14.1875 9.5625 C13 13 13 13 10.3125 15.4375 C7 17 7 17 1 17 C0.67 11.39 0.34 5.78 0 0 Z " fill="#F5BA16" transform="translate(309,29)"/>
<path d="M0 0 C0.1079859 2.43868168 0.18726589 4.87259133 0.25 7.3125 C0.30027344 8.34793945 0.30027344 8.34793945 0.3515625 9.40429688 C0.45007935 14.50254388 0.45007935 14.50254388 -1.78125 16.96875 C-4.90141942 18.41896959 -7.60971703 18.19559325 -11 18 C-11.33 17.01 -11.66 16.02 -12 15 C-9.98177083 15.09765625 -7.96354167 15.1953125 -5.9453125 15.29296875 C-5.30335938 15.19628906 -4.66140625 15.09960938 -4 15 C-3.34 14.01 -2.68 13.02 -2 12 C-3.0725 12.226875 -4.145 12.45375 -5.25 12.6875 C-9 13 -9 13 -11.4375 12 C-13 10 -13 10 -13.5 6.5 C-13 3 -13 3 -11.5625 1.0625 C-7.74098146 -0.52203208 -4.08137509 -0.23546395 0 0 Z " fill="#0C0A21" transform="translate(225,187)"/>
<path d="M0 0 C1.32 0 2.64 0 4 0 C4.33 0.66 4.66 1.32 5 2 C5.66 1.34 6.32 0.68 7 0 C10.5 -0.3125 10.5 -0.3125 14 0 C16.49118953 3.7367843 16.2065226 5.74451819 16.125 10.1875 C16.10695313 11.45980469 16.08890625 12.73210938 16.0703125 14.04296875 C16.04710937 15.01878906 16.02390625 15.99460937 16 17 C14.68 17 13.36 17 12 17 C11.67 12.71 11.34 8.42 11 4 C7.09847982 4.53222083 7.09847982 4.53222083 5.8125 6.5625 C4.6602417 10.0192749 4.36255408 13.37445916 4 17 C2.68 17 1.36 17 0 17 C0 11.39 0 5.78 0 0 Z " fill="#FCF4E9" transform="translate(395,33)"/>
<path d="M0 0 C0.87785156 0.01546875 1.75570312 0.0309375 2.66015625 0.046875 C4.9375 0.25 4.9375 0.25 6.9375 1.25 C6.6075 2.24 6.2775 3.23 5.9375 4.25 C2.9675 4.25 -0.0025 4.25 -3.0625 4.25 C-3.3925 5.24 -3.7225 6.23 -4.0625 7.25 C-3.43601563 7.29898438 -2.80953125 7.34796875 -2.1640625 7.3984375 C-1.34679687 7.47320312 -0.52953125 7.54796875 0.3125 7.625 C1.53066406 7.72941406 1.53066406 7.72941406 2.7734375 7.8359375 C4.9375 8.25 4.9375 8.25 6.9375 10.25 C7.25 13.25 7.25 13.25 6.9375 16.25 C3.815498 18.33133467 3.00483011 18.5237822 -0.5625 18.5 C-1.72265625 18.50773437 -1.72265625 18.50773437 -2.90625 18.515625 C-5.0625 18.25 -5.0625 18.25 -8.0625 16.25 C-8.0625 15.26 -8.0625 14.27 -8.0625 13.25 C-4.4325 13.58 -0.8025 13.91 2.9375 14.25 C3.2675 13.59 3.5975 12.93 3.9375 12.25 C3.23882812 12.12882812 2.54015625 12.00765625 1.8203125 11.8828125 C0.91023437 11.71523438 0.00015625 11.54765625 -0.9375 11.375 C-1.84242188 11.21257813 -2.74734375 11.05015625 -3.6796875 10.8828125 C-6.0625 10.25 -6.0625 10.25 -8.0625 8.25 C-8.41979435 5.46310407 -8.5462333 3.91120688 -6.859375 1.60546875 C-4.46691359 -0.19927932 -2.96576902 -0.08735697 0 0 Z " fill="#FDF9EC" transform="translate(136.0625,32.75)"/>
<path d="M0 0 C0.66 0.33 1.32 0.66 2 1 C1.67 1.99 1.34 2.98 1 4 C-1.97 4 -4.94 4 -8 4 C-8.33 4.99 -8.66 5.98 -9 7 C-8.38511719 7.03738281 -7.77023438 7.07476562 -7.13671875 7.11328125 C-6.32847656 7.17902344 -5.52023438 7.24476562 -4.6875 7.3125 C-3.88699219 7.37050781 -3.08648437 7.42851563 -2.26171875 7.48828125 C0.40045122 8.09060295 1.38551096 8.82280631 3 11 C2.875 13.5625 2.875 13.5625 2 16 C-1.122002 18.08133467 -1.93266989 18.2737822 -5.5 18.25 C-6.66015625 18.25773437 -6.66015625 18.25773437 -7.84375 18.265625 C-10 18 -10 18 -13 16 C-12.67 15.01 -12.34 14.02 -12 13 C-8.7 13.33 -5.4 13.66 -2 14 C-2 13.34 -2 12.68 -2 12 C-2.62648437 11.87882812 -3.25296875 11.75765625 -3.8984375 11.6328125 C-5.12433594 11.38144531 -5.12433594 11.38144531 -6.375 11.125 C-7.18710938 10.96257813 -7.99921875 10.80015625 -8.8359375 10.6328125 C-11 10 -11 10 -13 8 C-13.375 5.5625 -13.375 5.5625 -13 3 C-9.7541657 -1.09257368 -4.78158917 -0.48000509 0 0 Z " fill="#FDF9EE" transform="translate(210,33)"/>
<path d="M0 0 C0.90105469 0.02707031 1.80210937 0.05414063 2.73046875 0.08203125 C3.76107422 0.13423828 3.76107422 0.13423828 4.8125 0.1875 C5.1425 1.5075 5.4725 2.8275 5.8125 4.1875 C2.5125 4.1875 -0.7875 4.1875 -4.1875 4.1875 C-4.5175 5.1775 -4.8475 6.1675 -5.1875 7.1875 C-3.6096875 7.0946875 -3.6096875 7.0946875 -2 7 C2.00642904 7.19703749 3.81430958 7.5527266 6.8125 10.1875 C7.375 12.6875 7.375 12.6875 6.8125 15.1875 C5.03561967 17.33456373 3.6714201 18.07485474 0.90625 18.4375 C-2.93037517 18.55202612 -5.90185233 18.37793178 -9.1875 16.1875 C-8.8575 15.1975 -8.5275 14.2075 -8.1875 13.1875 C-4.5575 13.8475 -0.9275 14.5075 2.8125 15.1875 C2.4825 14.1975 2.1525 13.2075 1.8125 12.1875 C-0.26135852 11.41828715 -0.26135852 11.41828715 -2.6875 11.0625 C-7.11027992 10.26472008 -7.11027992 10.26472008 -8.1875 9.1875 C-8.6521439 3.84409515 -8.6521439 3.84409515 -6.99609375 1.50390625 C-4.56092508 -0.26855993 -2.97812791 -0.11603096 0 0 Z " fill="#FDF9EF" transform="translate(356.1875,32.8125)"/>
<path d="M0 0 C0.90105469 0.02707031 1.80210937 0.05414063 2.73046875 0.08203125 C3.76107422 0.13423828 3.76107422 0.13423828 4.8125 0.1875 C5.1425 1.5075 5.4725 2.8275 5.8125 4.1875 C2.5125 4.1875 -0.7875 4.1875 -4.1875 4.1875 C-4.5175 5.1775 -4.8475 6.1675 -5.1875 7.1875 C-3.6096875 7.0946875 -3.6096875 7.0946875 -2 7 C2.00642904 7.19703749 3.81430958 7.5527266 6.8125 10.1875 C7.375 12.6875 7.375 12.6875 6.8125 15.1875 C5.03561967 17.33456373 3.6714201 18.07485474 0.90625 18.4375 C-2.93037517 18.55202612 -5.90185233 18.37793178 -9.1875 16.1875 C-8.8575 15.1975 -8.5275 14.2075 -8.1875 13.1875 C-4.5575 13.8475 -0.9275 14.5075 2.8125 15.1875 C2.4825 14.1975 2.1525 13.2075 1.8125 12.1875 C-0.26135852 11.41828715 -0.26135852 11.41828715 -2.6875 11.0625 C-7.11027992 10.26472008 -7.11027992 10.26472008 -8.1875 9.1875 C-8.6521439 3.84409515 -8.6521439 3.84409515 -6.99609375 1.50390625 C-4.56092508 -0.26855993 -2.97812791 -0.11603096 0 0 Z " fill="#FDF9EF" transform="translate(154.1875,32.8125)"/>
<path d="M0 0 C0.66 0 1.32 0 2 0 C2 1.65 2 3.3 2 5 C2.99 4.34 3.98 3.68 5 3 C8.1875 2.875 8.1875 2.875 11 3 C11 3.66 11 4.32 11 5 C12.11375 4.79375 13.2275 4.5875 14.375 4.375 C16.169375 4.189375 16.169375 4.189375 18 4 C20 6 20 6 20 9 C18.02 9 16.04 9 14 9 C14 9.66 14 10.32 14 11 C15.65 10.67 17.3 10.34 19 10 C19 10.66 19 11.32 19 12 C16.125 12.125 16.125 12.125 13 12 C12.34 11.34 11.68 10.68 11 10 C11 8.68 11 7.36 11 6 C8.03 5.505 8.03 5.505 5 5 C5 5.66 5 6.32 5 7 C6.65 7.33 8.3 7.66 10 8 C10 9.32 10 10.64 10 12 C6.66666667 12 3.33333333 12 0 12 C-1.5159375 12.061875 -1.5159375 12.061875 -3.0625 12.125 C-6 12 -6 12 -8 10 C-8.1953125 7.8359375 -8.1953125 7.8359375 -8.125 5.375 C-8.10695312 4.55773437 -8.08890625 3.74046875 -8.0703125 2.8984375 C-8.04710937 2.27195313 -8.02390625 1.64546875 -8 1 C-7.67 1 -7.34 1 -7 1 C-6.67 3.64 -6.34 6.28 -6 9 C-4.05396726 9.59070014 -4.05396726 9.59070014 -2 10 C-0.41727399 8.41727399 -0.65264253 6.61965997 -0.4375 4.4375 C-0.35371094 3.61121094 -0.26992187 2.78492188 -0.18359375 1.93359375 C-0.12300781 1.29550781 -0.06242188 0.65742188 0 0 Z " fill="#545154" transform="translate(218,229)"/>
<path d="M0 0 C8.17817372 -0.36080178 8.17817372 -0.36080178 11.5625 1.125 C13 3 13 3 13.5 6 C13 9 13 9 11.4375 10.875 C8.19726212 12.3704944 5.52393641 12.20330402 2 12 C2 13.65 2 15.3 2 17 C1.34 17 0.68 17 0 17 C0 11.39 0 5.78 0 0 Z " fill="#060012" transform="translate(259,183)"/>
<path d="M0 0 C2.91289646 0.08473881 3.77703881 0.15009119 6.125 2 C7.39552894 5.21867331 7.04263473 7.08454769 6.0625 10.375 C4.875 12.25 4.875 12.25 3.0625 13.375 C-0.55331862 13.91352618 -2.27861489 13.79736225 -5.375 11.8125 C-6.9375 9.375 -6.9375 9.375 -6.8125 5.75 C-5.56632018 0.94330641 -4.9976319 0.47596494 0 0 Z " fill="#EEEEEE" transform="translate(269.9375,539.625)"/>
<path d="M0 0 C2.875 2 2.875 2 5 4 C4.67 4.99 4.34 5.98 4 7 C3.46375 6.67 2.9275 6.34 2.375 6 C-0.5929092 4.75035402 -2.80799279 4.72243416 -6 5 C-6.66 5.66 -7.32 6.32 -8 7 C-7.81242938 10.82564665 -7.81242938 10.82564665 -6 14 C-2.16680771 14.17423601 1.26835686 13.87803368 5 13 C4.75 14.875 4.75 14.875 4 17 C0.83142999 19.3470889 -2.15724779 19.47054109 -6 19 C-8.69990662 17.20006226 -10.5418865 15.916227 -12 13 C-12.39447548 8.81855989 -12.45035186 6.69053952 -10.125 3.125 C-6.79974618 -0.20025382 -4.65430991 -0.45630489 0 0 Z " fill="#FDF6E6" transform="translate(289,78)"/>
<path d="M0 0 C2.375 1.5625 2.375 1.5625 4 4 C3.78571429 10.21428571 3.78571429 10.21428571 1 13 C-5.00458716 13.54587156 -5.00458716 13.54587156 -7.9375 11.9375 C-9.63335287 8.84506242 -9.43060657 6.44485259 -9 3 C-6.35893733 -0.03233122 -3.92985113 -0.68772395 0 0 Z " fill="#081228" transform="translate(206,187)"/>
<path d="M0 0 C0.99 0 1.98 0 3 0 C3.10806144 2.91765891 3.18732877 5.83131125 3.25 8.75 C3.30027344 9.9875 3.30027344 9.9875 3.3515625 11.25 C3.45075974 17.40022878 3.45075974 17.40022878 1.109375 20.515625 C-2.73187299 23.21872543 -5.27377014 23.56073914 -10 23 C-12.35456932 21.20185875 -13.36307243 19.57940101 -15 17 C-15 15.68 -15 14.36 -15 13 C-13.68 13 -12.36 13 -11 13 C-10.34 14.65 -9.68 16.3 -9 18 C-6.08347826 18.16681109 -6.08347826 18.16681109 -3 18 C-0.06552643 15.06552643 -0.53841577 11.81740544 -0.375 7.875 C-0.31699219 6.74384766 -0.31699219 6.74384766 -0.2578125 5.58984375 C-0.16348969 3.72696816 -0.08065338 1.86351745 0 0 Z " fill="#FDF9F1" transform="translate(102,27)"/>
<path d="M0 0 C1.32 0 2.64 0 4 0 C4.33 0.99 4.66 1.98 5 3 C5.391875 2.505 5.78375 2.01 6.1875 1.5 C8 0 8 0 10.5 -0.4375 C13 0 13 0 14.875 1.8125 C15.24625 2.534375 15.6175 3.25625 16 4 C15.67 4.99 15.34 5.98 15 7 C14.01 7 13.02 7 12 7 C11.67 6.34 11.34 5.68 11 5 C9.05925139 5.27617533 9.05925139 5.27617533 7 6 C4.94074319 9.08888522 4.7609626 9.70935927 4.875 13.1875 C4.91625 14.445625 4.9575 15.70375 5 17 C3.35 17 1.7 17 0 17 C0 11.39 0 5.78 0 0 Z " fill="#FCF4E5" transform="translate(214,79)"/>
<path d="M0 0 C1.32 0 2.64 0 4 0 C4 2.31 4 4.62 4 7 C5.65 7 7.3 7 9 7 C9 7.99 9 8.98 9 10 C7.02 10 5.04 10 3 10 C3 14.62 3 19.24 3 24 C2.01 24 1.02 24 0 24 C0 19.71 0 15.42 0 11 C-1.98 11 -3.96 11 -6 11 C-5.67 9.68 -5.34 8.36 -5 7 C-3.35 7 -1.7 7 0 7 C0 4.69 0 2.38 0 0 Z " fill="#FDF8EB" transform="translate(301,72)"/>
<path d="M0 0 C2.31 0 4.62 0 7 0 C7.66 1.32 8.32 2.64 9 4 C9.66 3.01 10.32 2.02 11 1 C14.875 2.875 14.875 2.875 16 4 C16.99 3.01 17.98 2.02 19 1 C18.34 3.64 17.68 6.28 17 9 C14 8 14 8 12 5 C11.34 6.32 10.68 7.64 10 9 C9.34 9 8.68 9 8 9 C6.5393715 6.35261084 6 5.10551666 6 2 C4.02 2 2.04 2 0 2 C0 2.66 0 3.32 0 4 C1.65 4.33 3.3 4.66 5 5 C5 6.32 5 7.64 5 9 C0.38 9 -4.24 9 -9 9 C-8.67 8.34 -8.34 7.68 -8 7 C-6.02 7.495 -6.02 7.495 -4 8 C-4 7.34 -4 6.68 -4 6 C-5.65 5.67 -7.3 5.34 -9 5 C-9 3.68 -9 2.36 -9 1 C-7.02 1 -5.04 1 -3 1 C-4.32 1.33 -5.64 1.66 -7 2 C-7 2.66 -7 3.32 -7 4 C-5.35 4.33 -3.7 4.66 -2 5 C-2 5.66 -2 6.32 -2 7 C0.97 7.495 0.97 7.495 4 8 C4 7.34 4 6.68 4 6 C2.35 5.67 0.7 5.34 -1 5 C-0.67 3.35 -0.34 1.7 0 0 Z " fill="#352F33" transform="translate(242,314)"/>
<path d="M0 0 C2 2 2 2 2.125 4.625 C2.08375 5.40875 2.0425 6.1925 2 7 C-2.455 7.495 -2.455 7.495 -7 8 C-5.81575674 9.41577477 -5.81575674 9.41577477 -2.4375 9.0625 C-0.7359375 9.0315625 -0.7359375 9.0315625 1 9 C0.67 9.99 0.34 10.98 0 12 C-6.34507042 12.35915493 -6.34507042 12.35915493 -8.9375 10.9375 C-10.6140629 7.88023824 -10.36528977 5.4093712 -10 2 C-7.70689559 -2.31643184 -4.20602073 -0.99415036 0 0 Z " fill="#1F181F" transform="translate(315,188)"/>
<path d="M0 0 C1.32 0.33 2.64 0.66 4 1 C4.08120751 3.89640118 4.14059421 6.79050912 4.1875 9.6875 C4.21263672 10.50412109 4.23777344 11.32074219 4.26367188 12.16210938 C4.32116556 16.89575637 4.22774325 20.23429954 1 24 C-2.1875 24.8125 -2.1875 24.8125 -5 25 C-5 23.68 -5 22.36 -5 21 C-4.01 20.67 -3.02 20.34 -2 20 C-0.88176185 17.76352369 -0.80603939 16.35108471 -0.68359375 13.8671875 C-0.64169922 13.06152344 -0.59980469 12.25585938 -0.55664062 11.42578125 C-0.51732422 10.58402344 -0.47800781 9.74226563 -0.4375 8.875 C-0.37272461 7.60076172 -0.37272461 7.60076172 -0.30664062 6.30078125 C-0.20045764 4.20071777 -0.09971503 2.10038052 0 0 Z " fill="#FDF7E3" transform="translate(251,79)"/>
<path d="M0 0 C0.886875 0.165 1.77375 0.33 2.6875 0.5 C6.11203075 1.0169103 8.62581293 0.62775573 12 0 C13 1 13 1 13.0625 4.5625 C13.041875 5.696875 13.02125 6.83125 13 8 C10.87527424 8.05386629 8.75016348 8.09273071 6.625 8.125 C4.84996094 8.15980469 4.84996094 8.15980469 3.0390625 8.1953125 C0 8 0 8 -2 6 C-1.44444444 1.44444444 -1.44444444 1.44444444 0 0 Z " fill="#F8D598" transform="translate(355,452)"/>
<path d="M0 0 C1 1 1 1 1.0625 4.5625 C1.041875 5.696875 1.02125 6.83125 1 8 C-2.63 8 -6.26 8 -10 8 C-10.33 6.02 -10.66 4.04 -11 2 C-12.32 1.67 -13.64 1.34 -15 1 C-15 3.31 -15 5.62 -15 8 C-15.66 8 -16.32 8 -17 8 C-17 5.36 -17 2.72 -17 0 C-13.66666667 0 -10.33333333 0 -7 0 C-4.31633121 -1.3418344 -2.84719317 -0.73004953 0 0 Z " fill="#807E84" transform="translate(263,233)"/>
<path d="M0 0 C0.70125 0.07863281 1.4025 0.15726562 2.125 0.23828125 C4 0.6875 4 0.6875 6 2.6875 C5.67028521 5.98464793 5.3773161 7.3101839 3 9.6875 C-0.01826653 9.95990673 -2.96370622 9.77425125 -6 9.6875 C-6 6.7175 -6 3.7475 -6 0.6875 C-3.63106495 -0.49696753 -2.5933174 -0.31939755 0 0 Z " fill="#F5BB1A" transform="translate(202,75.3125)"/>
<path d="M0 0 C1.32 0 2.64 0 4 0 C4 7.92 4 15.84 4 24 C4.99 24 5.98 24 7 24 C6.67 25.32 6.34 26.64 6 28 C1.125 26.25 1.125 26.25 0 24 C-0.08471364 22.18658158 -0.10721083 20.37005839 -0.09765625 18.5546875 C-0.09443359 17.47832031 -0.09121094 16.40195312 -0.08789062 15.29296875 C-0.07951172 14.16503906 -0.07113281 13.03710938 -0.0625 11.875 C-0.05798828 10.73933594 -0.05347656 9.60367187 -0.04882812 8.43359375 C-0.03701615 5.62234362 -0.02054507 2.8111977 0 0 Z " fill="#FDF9EA" transform="translate(248,22)"/>
<path d="M0 0 C2.00349261 0.31165441 4.00326516 0.64763503 6 1 C7.67343448 0.70250054 9.34305915 0.37872934 11 0 C12 1 12 1 12.0625 4.5625 C12.041875 5.696875 12.02125 6.83125 12 8 C9.85423363 8.02685938 7.70837355 8.04633088 5.5625 8.0625 C4.36753906 8.07410156 3.17257812 8.08570313 1.94140625 8.09765625 C-1 8 -1 8 -2 7 C-2.1875 4.5625 -2.1875 4.5625 -2 2 C-1.34 1.34 -0.68 0.68 0 0 Z " fill="#B8B0B3" transform="translate(312,452)"/>
<path d="M0 0 C3.375 -0.125 3.375 -0.125 7 0 C9 2 9 2 9.1953125 4.6015625 C9.17210937 5.59929687 9.14890625 6.59703125 9.125 7.625 C9.10695313 8.62789062 9.08890625 9.63078125 9.0703125 10.6640625 C9.03550781 11.82035156 9.03550781 11.82035156 9 13 C7.54207116 13.05399736 6.08357288 13.09279177 4.625 13.125 C3.81289063 13.14820313 3.00078125 13.17140625 2.1640625 13.1953125 C0 13 0 13 -2 11 C-2 9.68 -2 8.36 -2 7 C0.95664519 5.5216774 3.74229737 5.93967217 7 6 C7 5.01 7 4.02 7 3 C4.36 3 1.72 3 -1 3 C-0.67 2.01 -0.34 1.02 0 0 Z " fill="#1C171F" transform="translate(276,187)"/>
<path d="M0 0 C1.65 0.33 3.3 0.66 5 1 C5 2.32 5 3.64 5 5 C5.99 3.35 6.98 1.7 8 0 C9.65 0.33 11.3 0.66 13 1 C13 3.64 13 6.28 13 9 C7.91761871 10.06997501 3.18438406 10 -2 10 C-1.360625 9.2575 -0.72125 8.515 -0.0625 7.75 C1.78333407 5.2888879 2.56069174 3.96533074 3 1 C2.34 1 1.68 1 1 1 C1 1.66 1 2.32 1 3 C0.34 3 -0.32 3 -1 3 C-0.67 2.01 -0.34 1.02 0 0 Z " fill="#BDBCC2" transform="translate(61,346)"/>
<path d="M0 0 C2.4375 0.75 2.4375 0.75 4.4375 2.75 C4.8125 5.6875 4.8125 5.6875 4.4375 8.75 C2.75 10.6875 2.75 10.6875 0.4375 11.75 C-3.97275641 11.33974359 -3.97275641 11.33974359 -5.5625 9.75 C-5.93336093 3.9089404 -5.93336093 3.9089404 -5.5625 1.75 C-2.5625 -0.25 -2.5625 -0.25 0 0 Z " fill="#F5BC1C" transform="translate(284.5625,35.25)"/>
<path d="M0 0 C2.4375 0.8125 2.4375 0.8125 4.4375 2.8125 C4.77411952 5.9767235 4.93693411 7.99763382 3.25 10.75 C1.4375 11.8125 1.4375 11.8125 -1.125 11.625 C-3.5625 10.8125 -3.5625 10.8125 -5.5625 8.8125 C-5.89911952 5.6482765 -6.06193411 3.62736618 -4.375 0.875 C-2.5625 -0.1875 -2.5625 -0.1875 0 0 Z " fill="#F5BD19" transform="translate(382.5625,35.1875)"/>
<path d="M0 0 C2 0.6875 2 0.6875 4 2.6875 C4.34490322 6.74011287 4.30163882 8.23504176 2 11.6875 C-1.125 11.875 -1.125 11.875 -4 11.6875 C-6.19909502 6.43410633 -6.19909502 6.43410633 -5.25 2.875 C-3.74194391 0.23590184 -3.05139593 -0.47678061 0 0 Z " fill="#F5BC18" transform="translate(265,35.3125)"/>
<path d="M0 0 C3.29714793 0.32971479 4.6226839 0.6226839 7 3 C7.34490322 7.05261287 7.30163882 8.54754176 5 12 C2.5 12.3125 2.5 12.3125 0 12 C-2 10 -2 10 -2.265625 8.125 C-2.26046875 7.42375 -2.2553125 6.7225 -2.25 6 C-2.25515625 5.29875 -2.2603125 4.5975 -2.265625 3.875 C-2 2 -2 2 0 0 Z " fill="#F5BC17" transform="translate(237,81)"/>
<path d="M0 0 C2.9375 0.1875 2.9375 0.1875 3.9375 1.1875 C4.21064815 6.92361111 4.21064815 6.92361111 3.9375 9.1875 C1.9375 11.1875 1.9375 11.1875 -0.5625 11.5 C-1.8 11.3453125 -1.8 11.3453125 -3.0625 11.1875 C-5.36413882 7.73504176 -5.40740322 6.24011287 -5.0625 2.1875 C-3.0625 0.1875 -3.0625 0.1875 0 0 Z " fill="#F2F3F1" transform="translate(297.0625,540.8125)"/>
<path d="M0 0 C1.51400391 0.01740234 1.51400391 0.01740234 3.05859375 0.03515625 C4.07050781 0.04417969 5.08242188 0.05320312 6.125 0.0625 C7.29869141 0.07990234 7.29869141 0.07990234 8.49609375 0.09765625 C8.49609375 0.75765625 8.49609375 1.41765625 8.49609375 2.09765625 C7.83609375 2.09765625 7.17609375 2.09765625 6.49609375 2.09765625 C6.49609375 4.07765625 6.49609375 6.05765625 6.49609375 8.09765625 C5.03816491 8.15165361 3.57966663 8.19044802 2.12109375 8.22265625 C1.30898438 8.24585938 0.496875 8.2690625 -0.33984375 8.29296875 C-2.50390625 8.09765625 -2.50390625 8.09765625 -4.50390625 6.09765625 C-3.77826013 0.14735804 -3.77826013 0.14735804 0 0 Z " fill="#F9DFAF" transform="translate(343.50390625,451.90234375)"/>
<path d="M0 0 C0.721875 0.350625 1.44375 0.70125 2.1875 1.0625 C5.34933813 2.11644604 6.82093053 1.68736637 10 1 C12 3 12 3 12 6 C10.35 6.33 8.7 6.66 7 7 C8.65 7 10.3 7 12 7 C11.67 7.66 11.34 8.32 11 9 C7.37 9 3.74 9 0 9 C-0.87890625 2.84765625 -0.87890625 2.84765625 -1 1 C-0.67 0.67 -0.34 0.34 0 0 Z " fill="#F6C86B" transform="translate(371,451)"/>
<path d="M0 0 C0.99 0 1.98 0 3 0 C3 4.95 3 9.9 3 15 C5.97 15 8.94 15 12 15 C12 15.99 12 16.98 12 18 C8.04 18 4.08 18 0 18 C0 12.06 0 6.12 0 0 Z " fill="#3C3B3D" transform="translate(184,183)"/>
<path d="M0 0 C3.125 0.375 3.125 0.375 6 1 C6.02688151 2.64574566 6.04634123 4.29161413 6.0625 5.9375 C6.07410156 6.85402344 6.08570313 7.77054688 6.09765625 8.71484375 C6 11 6 11 5 12 C3.00041636 12.04080783 0.99954746 12.04254356 -1 12 C-1.33 11.34 -1.66 10.68 -2 10 C-0.02 10 1.96 10 4 10 C3.1028125 9.8453125 3.1028125 9.8453125 2.1875 9.6875 C-0.35666511 8.88790525 -1.4657452 8.18025682 -3 6 C-2.72963853 3.02602384 -2.14553974 2.14553974 0 0 Z " fill="#D5D3D4" transform="translate(233,543)"/>
<path d="M0 0 C1 1 1 1 1.1875 3.4375 C1 6 1 6 -1 8 C-3.625 8.125 -3.625 8.125 -6 8 C-6 8.99 -6 9.98 -6 11 C-6.66 11 -7.32 11 -8 11 C-8 7.37 -8 3.74 -8 0 C-4.69676014 -1.10107995 -3.29495231 -0.86709271 0 0 Z " fill="#D6D4D5" transform="translate(209,544)"/>
<path d="M0 0 C1.20462891 -0.02126953 1.20462891 -0.02126953 2.43359375 -0.04296875 C4.5625 0.1875 4.5625 0.1875 6.5625 2.1875 C6.375 4.25 6.375 4.25 5.5625 6.1875 C2.81171116 7.10442961 1.20301087 7.29636083 -1.625 7.25 C-3.5121875 7.2190625 -3.5121875 7.2190625 -5.4375 7.1875 C-5.48004356 5.18795254 -5.47830783 3.18708364 -5.4375 1.1875 C-3.84855928 -0.40144072 -2.18948576 0.01751589 0 0 Z " fill="#F5BB1B" transform="translate(234.4375,39.8125)"/>
<path d="M0 0 C1.62463842 -0.05395478 3.24978541 -0.09277195 4.875 -0.125 C5.77992188 -0.14820312 6.68484375 -0.17140625 7.6171875 -0.1953125 C10 0 10 0 12 2 C11.75 4.0625 11.75 4.0625 11 6 C7.78548731 7.60725635 4.56387464 7.05748185 1 7 C0.67 4.69 0.34 2.38 0 0 Z " fill="#F5BD1B" transform="translate(228,30)"/>
<path d="M0 0 C6.15234375 -0.09765625 6.15234375 -0.09765625 8 0 C9 1 9 1 9.25 3.4375 C9.1675 4.283125 9.085 5.12875 9 6 C6 8 6 8 2 8 C2 8.99 2 9.98 2 11 C1.34 11 0.68 11 0 11 C0 7.37 0 3.74 0 0 Z " fill="#38363A" transform="translate(213,312)"/>
<path d="M0 0 C2.375 0.75 2.375 0.75 3.375 1.75 C3.41592937 4.08297433 3.41741723 6.41705225 3.375 8.75 C0.405 8.75 -2.565 8.75 -5.625 8.75 C-5.98575949 3.33860759 -5.98575949 3.33860759 -4.4375 0.8125 C-2.625 -0.25 -2.625 -0.25 0 0 Z " fill="#5A565A" transform="translate(287.625,232.25)"/>
<path d="M0 0 C0.33 0 0.66 0 1 0 C1 3.96 1 7.92 1 12 C-2.375 12.125 -2.375 12.125 -6 12 C-6.66 11.34 -7.32 10.68 -8 10 C-7.44444444 5.44444444 -7.44444444 5.44444444 -6 4 C-4.00041636 3.95919217 -1.99954746 3.95745644 0 4 C0 2.68 0 1.36 0 0 Z " fill="#2B1D27" transform="translate(286,311)"/>
<path d="M0 0 C0.66 0 1.32 0 2 0 C2 1.65 2 3.3 2 5 C2.66 5 3.32 5 4 5 C4 5.99 4 6.98 4 8 C5.65 8.33 7.3 8.66 9 9 C9 9.66 9 10.32 9 11 C5.94152152 11.54372951 3.11227195 12 0 12 C-1.5159375 12.061875 -1.5159375 12.061875 -3.0625 12.125 C-6 12 -6 12 -8 10 C-8.1953125 7.8359375 -8.1953125 7.8359375 -8.125 5.375 C-8.10695312 4.55773437 -8.08890625 3.74046875 -8.0703125 2.8984375 C-8.04710937 2.27195313 -8.02390625 1.64546875 -8 1 C-7.67 1 -7.34 1 -7 1 C-6.67 3.64 -6.34 6.28 -6 9 C-4.05396726 9.59070014 -4.05396726 9.59070014 -2 10 C-0.41727399 8.41727399 -0.65264253 6.61965997 -0.4375 4.4375 C-0.35371094 3.61121094 -0.26992187 2.78492188 -0.18359375 1.93359375 C-0.12300781 1.29550781 -0.06242188 0.65742188 0 0 Z " fill="#BBC4C7" transform="translate(218,229)"/>
<path d="M0 0 C5.56818182 0.56818182 5.56818182 0.56818182 7 2 C7.1875 4.4375 7.1875 4.4375 7 7 C5 9 5 9 2.5 9.25 C0 9 0 9 -2 7 C-2.25 4.5 -2.25 4.5 -2 2 C-1.34 1.34 -0.68 0.68 0 0 Z " fill="#E6E5DF" transform="translate(201,189)"/>
<path d="M0 0 C8.625 -0.25 8.625 -0.25 12 2 C12.29296875 4.6015625 12.29296875 4.6015625 12.1875 7.625 C12.16042969 8.62789062 12.13335937 9.63078125 12.10546875 10.6640625 C12.07066406 11.43492187 12.03585938 12.20578125 12 13 C11.34 13 10.68 13 10 13 C9.67 10.03 9.34 7.06 9 4 C7.34385343 3.61781233 5.67542976 3.28604898 4 3 C2.41727399 4.58272601 2.65264253 6.38034003 2.4375 8.5625 C2.35371094 9.38878906 2.26992187 10.21507812 2.18359375 11.06640625 C2.12300781 11.70449219 2.06242188 12.34257812 2 13 C1.34 13 0.68 13 0 13 C0 8.71 0 4.42 0 0 Z " fill="#160515" transform="translate(236,187)"/>
<path d="M0 0 C1.32 0 2.64 0 4 0 C4 5.61 4 11.22 4 17 C2.68 17 1.36 17 0 17 C0 11.39 0 5.78 0 0 Z " fill="#FBF3DB" transform="translate(366,33)"/>
<path d="M0 0 C1.32 0 2.64 0 4 0 C4 5.61 4 11.22 4 17 C2.68 17 1.36 17 0 17 C0 11.39 0 5.78 0 0 Z " fill="#FBF3DB" transform="translate(164,33)"/>
<path d="M0 0 C3.375 -0.125 3.375 -0.125 7 0 C7.66 0.66 8.32 1.32 9 2 C8.44444444 6.55555556 8.44444444 6.55555556 7 8 C4.66702567 8.04092937 2.33294775 8.04241723 0 8 C0 5.36 0 2.72 0 0 Z " fill="#E7E9E7" transform="translate(261,185)"/>
<path d="M0 0 C4.55555556 0.55555556 4.55555556 0.55555556 6 2 C6.1875 4.4375 6.1875 4.4375 6 7 C4 9 4 9 1.5 9.25 C-1 9 -1 9 -3 7 C-2.67028521 3.70285207 -2.3773161 2.3773161 0 0 Z " fill="#D7D4D4" transform="translate(193,543)"/>
<path d="M0 0 C2.375 0.6875 2.375 0.6875 3.375 1.6875 C3.5625 4.125 3.5625 4.125 3.375 6.6875 C2.715 7.3475 2.055 8.0075 1.375 8.6875 C-1.92214793 8.35778521 -3.2476839 8.0648161 -5.625 5.6875 C-5.625 4.3675 -5.625 3.0475 -5.625 1.6875 C-2.625 -0.3125 -2.625 -0.3125 0 0 Z " fill="#DFE4E3" transform="translate(295.625,189.3125)"/>
<path d="M0 0 C2.33294775 -0.04241723 4.66702567 -0.04092937 7 0 C8 1 8 1 8.1875 3.4375 C8 6 8 6 6 8 C3.5 8.25 3.5 8.25 1 8 C0.34 7.34 -0.32 6.68 -1 6 C-0.625 2.875 -0.625 2.875 0 0 Z " fill="#38353A" transform="translate(263,315)"/>
<path d="M0 0 C3.125 0.375 3.125 0.375 6 1 C6.625 3.375 6.625 3.375 7 6 C5 8 5 8 1.9375 8.1875 C-1 8 -1 8 -2 7 C-2.1875 4.5625 -2.1875 4.5625 -2 2 C-1.34 1.34 -0.68 0.68 0 0 Z " fill="#E6E8E7" transform="translate(216,189)"/>
<path d="M0 0 C2.31284456 0.14026283 4.62527591 0.28735558 6.9375 0.4375 C8.86916016 0.55931641 8.86916016 0.55931641 10.83984375 0.68359375 C14 1 14 1 15 2 C15.04092937 4.33297433 15.04241723 6.66705225 15 9 C14.34 9 13.68 9 13 9 C13 6.69 13 4.38 13 2 C11.68 2.33 10.36 2.66 9 3 C8.67 4.98 8.34 6.96 8 9 C7.67 9 7.34 9 7 9 C6.67 7.02 6.34 5.04 6 3 C5.01 3 4.02 3 3 3 C2.67 4.98 2.34 6.96 2 9 C1.34 9 0.68 9 0 9 C0 6.03 0 3.06 0 0 Z " fill="#473F43" transform="translate(266,232)"/>
<path d="M0 0 C1.2065625 0.0309375 1.2065625 0.0309375 2.4375 0.0625 C2.46438151 1.70824566 2.48384123 3.35411413 2.5 5 C2.51160156 5.91652344 2.52320313 6.83304687 2.53515625 7.77734375 C2.4375 10.0625 2.4375 10.0625 1.4375 11.0625 C-0.22867115 11.10313832 -1.89638095 11.105221 -3.5625 11.0625 C-3.5625 10.4025 -3.5625 9.7425 -3.5625 9.0625 C-2.2425 9.3925 -0.9225 9.7225 0.4375 10.0625 C0.4375 9.4025 0.4375 8.7425 0.4375 8.0625 C-0.8825 7.7325 -2.2025 7.4025 -3.5625 7.0625 C-3.60504356 5.06295254 -3.60330783 3.06208364 -3.5625 1.0625 C-2.5625 0.0625 -2.5625 0.0625 0 0 Z " fill="#FAE5AA" transform="translate(252.5625,404.9375)"/>
<path d="M0 0 C0.99 0.33 1.98 0.66 3 1 C3.33 1.99 3.66 2.98 4 4 C4.66 3.01 5.32 2.02 6 1 C9.875 2.875 9.875 2.875 11 4 C11.99 3.01 12.98 2.02 14 1 C13.34 3.64 12.68 6.28 12 9 C9 8 9 8 7 5 C6.34 6.32 5.68 7.64 5 9 C4.34 9 3.68 9 3 9 C2.01 6.03 1.02 3.06 0 0 Z " fill="#5B4E4F" transform="translate(247,314)"/>
<path d="M0 0 C2.625 0.375 2.625 0.375 5 1 C5.625 3.375 5.625 3.375 6 6 C4 8 4 8 1.4375 8.1875 C-1 8 -1 8 -2 7 C-2.1875 4.5625 -2.1875 4.5625 -2 2 C-1.34 1.34 -0.68 0.68 0 0 Z " fill="#F6C259" transform="translate(246,470)"/>
<path d="M0 0 C0.33 0 0.66 0 1 0 C1 3.3 1 6.6 1 10 C-0.99954746 10.04254356 -3.00041636 10.04080783 -5 10 C-6 9 -6 9 -6.1875 6.5625 C-6 4 -6 4 -4 2 C-3.01 2 -2.02 2 -1 2 C-0.67 1.34 -0.34 0.68 0 0 Z " fill="#806B54" transform="translate(119,450)"/>
<path d="M0 0 C1 1 1 1 1.125 3.5 C1 6 1 6 0 7 C-2.4375 7.1875 -2.4375 7.1875 -5 7 C-5.66 6.34 -6.32 5.68 -7 5 C-6.75 2.4375 -6.75 2.4375 -6 0 C-3.49749232 -1.25125384 -2.59701335 -0.83774624 0 0 Z " fill="#807682" transform="translate(129,453)"/>
<path d="M0 0 C4.875 0.875 4.875 0.875 6 2 C6.04092937 4.33297433 6.04241723 6.66705225 6 9 C3.69 9 1.38 9 -1 9 C-1.33 7.68 -1.66 6.36 -2 5 C-0.02 4.67 1.96 4.34 4 4 C4 3.34 4 2.68 4 2 C2.35 2 0.7 2 -1 2 C-0.67 1.34 -0.34 0.68 0 0 Z " fill="#565555" transform="translate(225,314)"/>
<path d="M0 0 C2.625 0.9375 2.625 0.9375 5 2 C4.67 3.65 4.34 5.3 4 7 C1.625 7.625 1.625 7.625 -1 8 C-1.66 7.34 -2.32 6.68 -3 6 C-2.75 3.4375 -2.75 3.4375 -2 1 C-1.34 0.67 -0.68 0.34 0 0 Z " fill="#88858A" transform="translate(290,452)"/>
<path d="M0 0 C2.625 0.9375 2.625 0.9375 5 2 C4.67 3.65 4.34 5.3 4 7 C1.625 7.625 1.625 7.625 -1 8 C-1.66 7.34 -2.32 6.68 -3 6 C-2.75 3.4375 -2.75 3.4375 -2 1 C-1.34 0.67 -0.68 0.34 0 0 Z " fill="#88858A" transform="translate(93,452)"/>
<path d="M0 0 C0.66 0 1.32 0 2 0 C2 3.3 2 6.6 2 10 C0.35 10 -1.3 10 -3 10 C-4 9 -4 9 -4.0625 5.9375 C-4.041875 4.968125 -4.02125 3.99875 -4 3 C-2.68 2.67 -1.36 2.34 0 2 C0 1.34 0 0.68 0 0 Z " fill="#97919D" transform="translate(64,264)"/>
<path d="M0 0 C1 1 1 1 1.125 3.5 C1 6 1 6 0 7 C-2.5 7.125 -2.5 7.125 -5 7 C-6 6 -6 6 -6.0625 2.9375 C-6.041875 1.968125 -6.02125 0.99875 -6 0 C-3.49749232 -1.25125384 -2.59701335 -0.83774624 0 0 Z " fill="#726F85" transform="translate(245,453)"/>
<path d="M0 0 C0.33 0.66 0.66 1.32 1 2 C3.52733235 2.65555119 3.52733235 2.65555119 6 3 C6 4.65 6 6.3 6 8 C4.35 8.33 2.7 8.66 1 9 C0.67 8.01 0.34 7.02 0 6 C-0.66 6 -1.32 6 -2 6 C-2 4.68 -2 3.36 -2 2 C-1.34 2 -0.68 2 0 2 C0 1.34 0 0.68 0 0 Z " fill="#CCC8C8" transform="translate(84,347)"/>
<path d="M0 0 C0.66 0 1.32 0 2 0 C2.66 1.32 3.32 2.64 4 4 C4.66 2.68 5.32 1.36 6 0 C6.66 0 7.32 0 8 0 C8.66 0.99 9.32 1.98 10 3 C10.99 2.01 11.98 1.02 13 0 C12.1875 3.4375 12.1875 3.4375 11 7 C10.01 7.33 9.02 7.66 8 8 C7.34 7.01 6.68 6.02 6 5 C5.67 5.99 5.34 6.98 5 8 C4.01 7.67 3.02 7.34 2 7 C0.8125 3.4375 0.8125 3.4375 0 0 Z " fill="#F6C563" transform="translate(418,452)"/>
<path d="M0 0 C1.67542976 0.28604898 3.34385343 0.61781233 5 1 C5.625 3.375 5.625 3.375 6 6 C5.34 6.66 4.68 7.32 4 8 C1.375 7.625 1.375 7.625 -1 7 C-1.04254356 5.00045254 -1.04080783 2.99958364 -1 1 C-0.67 0.67 -0.34 0.34 0 0 Z " fill="#FBF5E1" transform="translate(242,405)"/>
<path d="M0 0 C1.67542976 0.28604898 3.34385343 0.61781233 5 1 C4.360625 1.12375 3.72125 1.2475 3.0625 1.375 C2.381875 1.58125 1.70125 1.7875 1 2 C0.67 2.66 0.34 3.32 0 4 C1.65 4.33 3.3 4.66 5 5 C4.67 6.65 4.34 8.3 4 10 C-0.875 9.125 -0.875 9.125 -2 8 C-1.28 1.28 -1.28 1.28 0 0 Z " fill="#B5AEAF" transform="translate(93,346)"/>
<path d="M0 0 C2.5625 0.25 2.5625 0.25 5 1 C5.33 1.66 5.66 2.32 6 3 C5.67 3.99 5.34 4.98 5 6 C4.34 6 3.68 6 3 6 C3 6.66 3 7.32 3 8 C1.35 7.67 -0.3 7.34 -2 7 C-2.125 4.625 -2.125 4.625 -2 2 C-1.34 1.34 -0.68 0.68 0 0 Z " fill="#C4C6CD" transform="translate(312,452)"/>
<path d="M0 0 C-1 3 -1 3 -3.25 4.6875 C-6.1364252 6.06511203 -7.85173236 6.26985151 -11 6 C-11.66 4.68 -12.32 3.36 -13 2 C-4.57142857 -0.28571429 -4.57142857 -0.28571429 0 0 Z " fill="#F6BF20" transform="translate(275,87)"/>
<path d="M0 0 C0.66 0.66 1.32 1.32 2 2 C2.66 1.34 3.32 0.68 4 0 C6.125 0.375 6.125 0.375 8 1 C8.33 2.32 8.66 3.64 9 5 C7.35 5.33 5.7 5.66 4 6 C4.99 6.66 5.98 7.32 7 8 C5.35 7.67 3.7 7.34 2 7 C1.67 6.01 1.34 5.02 1 4 C0.34 4 -0.32 4 -1 4 C-0.67 2.68 -0.34 1.36 0 0 Z " fill="#9C9EA5" transform="translate(178,452)"/>
<path d="M0 0 C0 2.64 0 5.28 0 8 C-0.20625 7.360625 -0.4125 6.72125 -0.625 6.0625 C-1.89360166 3.66655775 -1.89360166 3.66655775 -5.0625 3.1875 C-6.031875 3.125625 -7.00125 3.06375 -8 3 C-9.35618499 4.12534105 -9.35618499 4.12534105 -9.0625 7.0625 C-9.041875 8.031875 -9.02125 9.00125 -9 10 C-9.99 10 -10.98 10 -12 10 C-12.48137536 3.6217765 -12.48137536 3.6217765 -10.5 1.0625 C-6.87802345 -0.47684003 -3.92037077 -0.19601854 0 0 Z " fill="#170C10" transform="translate(224,187)"/>
<path d="M0 0 C0 0.66 0 1.32 0 2 C-0.99 2 -1.98 2 -3 2 C-3.33 2.99 -3.66 3.98 -4 5 C-5.98 5 -7.96 5 -10 5 C-10.66 3.68 -11.32 2.36 -12 1 C-10.37681021 0.63762737 -8.7513642 0.28534843 -7.125 -0.0625 C-6.22007812 -0.25972656 -5.31515625 -0.45695312 -4.3828125 -0.66015625 C-2 -1 -2 -1 0 0 Z " fill="#F6BF21" transform="translate(187,42)"/>
<path d="M0 0 C1.8125 0.375 1.8125 0.375 4 1 C4.7425 1.185625 5.485 1.37125 6.25 1.5625 C6.8275 1.706875 7.405 1.85125 8 2 C8.33 3.32 8.66 4.64 9 6 C10.32 6 11.64 6 13 6 C13 6.66 13 7.32 13 8 C8.38 8 3.76 8 -1 8 C0.32 7.67 1.64 7.34 3 7 C2.67 5.35 2.34 3.7 2 2 C1.01 1.67 0.02 1.34 -1 1 C-0.67 0.67 -0.34 0.34 0 0 Z " fill="#8F9195" transform="translate(216,452)"/>
<path d="M0 0 C1.67542976 0.28604898 3.34385343 0.61781233 5 1 C5.33 2.32 5.66 3.64 6 5 C4.35 5.33 2.7 5.66 1 6 C2.32 6 3.64 6 5 6 C5 6.66 5 7.32 5 8 C2.625 8.125 2.625 8.125 0 8 C-0.66 7.34 -1.32 6.68 -2 6 C-1.44444444 1.44444444 -1.44444444 1.44444444 0 0 Z " fill="#F6C76D" transform="translate(412,452)"/>
<path d="M0 0 C2.9375 0.1875 2.9375 0.1875 3.9375 1.1875 C4.21064815 6.92361111 4.21064815 6.92361111 3.9375 9.1875 C1.9375 11.1875 1.9375 11.1875 -0.5625 11.5 C-1.8 11.3453125 -1.8 11.3453125 -3.0625 11.1875 C-5.36413882 7.73504176 -5.40740322 6.24011287 -5.0625 2.1875 C-3.0625 0.1875 -3.0625 0.1875 0 0 Z M-2.0625 1.1875 C-3.47827477 2.37174326 -3.47827477 2.37174326 -3.125 5.75 C-3.104375 6.884375 -3.08375 8.01875 -3.0625 9.1875 C-1.17070797 9.8689823 -1.17070797 9.8689823 0.9375 10.1875 C3.1866908 8.36046773 3.1866908 8.36046773 3.1875 5.6875 C3.1866908 3.01453227 3.1866908 3.01453227 0.9375 1.1875 C-0.0525 1.1875 -1.0425 1.1875 -2.0625 1.1875 Z " fill="#D6D3D3" transform="translate(297.0625,540.8125)"/>
<path d="M0 0 C1.65 0.33 3.3 0.66 5 1 C5 3.31 5 5.62 5 8 C3.02 8 1.04 8 -1 8 C-0.835 7.236875 -0.67 6.47375 -0.5 5.6875 C0.09145396 2.96403764 0.09145396 2.96403764 0 0 Z " fill="#A89CAA" transform="translate(165,452)"/>
<path d="M0 0 C0.66 0 1.32 0 2 0 C2.33 0.99 2.66 1.98 3 3 C4.98045559 3.66179847 4.98045559 3.66179847 7 4 C8 5 8 5 8.0625 8.0625 C8.041875 9.031875 8.02125 10.00125 8 11 C7.34 11 6.68 11 6 11 C6 9.02 6 7.04 6 5 C4.68 5 3.36 5 2 5 C2 6.98 2 8.96 2 11 C1.34 11 0.68 11 0 11 C0 7.37 0 3.74 0 0 Z " fill="#9A9E92" transform="translate(154,449)"/>
<path d="M0 0 C0.66 0 1.32 0 2 0 C2.33 0.99 2.66 1.98 3 3 C4.65 3.33 6.3 3.66 8 4 C8 6.64 8 9.28 8 12 C7.67 12 7.34 12 7 12 C6.67 10.02 6.34 8.04 6 6 C4.68 5.67 3.36 5.34 2 5 C2 7.31 2 9.62 2 12 C1.34 12 0.68 12 0 12 C0 8.04 0 4.08 0 0 Z " fill="#D5D4D6" transform="translate(242,540)"/>
<path d="M0 0 C2 0.3125 2 0.3125 4 1 C5.35439668 3.70879335 5.06501451 6.00933268 5 9 C3.35 9 1.7 9 0 9 C-0.87890625 2.84765625 -0.87890625 2.84765625 -1 1 C-0.67 0.67 -0.34 0.34 0 0 Z " fill="#FAE6D6" transform="translate(371,451)"/>
<path d="M0 0 C1.67542976 0.28604898 3.34385343 0.61781233 5 1 C5.33 2.65 5.66 4.3 6 6 C2.86650268 7.04449911 2.01031744 6.93423645 -1 6 C-1.042721 4.33388095 -1.04063832 2.66617115 -1 1 C-0.67 0.67 -0.34 0.34 0 0 Z " fill="#E2E1DD" transform="translate(233,452)"/>
<path d="M0 0 C4.875 0.875 4.875 0.875 6 2 C6.04080783 3.99958364 6.04254356 6.00045254 6 8 C4.02 8 2.04 8 0 8 C0 6.68 0 5.36 0 4 C1.32 4 2.64 4 4 4 C4 3.34 4 2.68 4 2 C2.35 2 0.7 2 -1 2 C-0.67 1.34 -0.34 0.68 0 0 Z " fill="#F7C866" transform="translate(389,452)"/>
<path d="M0 0 C0.99 0 1.98 0 3 0 C3 4.29 3 8.58 3 13 C2.01 13 1.02 13 0 13 C0 8.71 0 4.42 0 0 Z " fill="#3F433F" transform="translate(229,187)"/>
<path d="M0 0 C2.875 -0.125 2.875 -0.125 6 0 C8 2 8 2 8.125 5.125 C8.08375 6.07375 8.0425 7.0225 8 8 C7.34 8 6.68 8 6 8 C6 6.02 6 4.04 6 2 C4.68 2 3.36 2 2 2 C2 3.98 2 5.96 2 8 C1.34 8 0.68 8 0 8 C0 5.36 0 2.72 0 0 Z " fill="#F6C365" transform="translate(263,470)"/>
<path d="M0 0 C1.65 0.33 3.3 0.66 5 1 C5 3.31 5 5.62 5 8 C3.02 8 1.04 8 -1 8 C-1 6.68 -1 5.36 -1 4 C0.32 3.67 1.64 3.34 3 3 C3 2.34 3 1.68 3 1 C1.68 1.33 0.36 1.66 -1 2 C-0.67 1.34 -0.34 0.68 0 0 Z " fill="#A09EA6" transform="translate(53,266)"/>
<path d="M0 0 C0.66 0 1.32 0 2 0 C2.33 1.98 2.66 3.96 3 6 C3.66 6 4.32 6 5 6 C5.33 4.02 5.66 2.04 6 0 C6.66 0 7.32 0 8 0 C8 2.64 8 5.28 8 8 C5.69 8 3.38 8 1 8 C-0.35439668 5.29120665 -0.06501451 2.99066732 0 0 Z " fill="#F6C563" transform="translate(253,470)"/>
<path d="M0 0 C1.65 0.33 3.3 0.66 5 1 C5 3.31 5 5.62 5 8 C3.02 8 1.04 8 -1 8 C-1 6.68 -1 5.36 -1 4 C0.65 4 2.3 4 4 4 C4 3.34 4 2.68 4 2 C2.35 2 0.7 2 -1 2 C-0.67 1.34 -0.34 0.68 0 0 Z " fill="#F6C85F" transform="translate(363,452)"/>
<path d="M0 0 C1.98 0 3.96 0 6 0 C6.33 1.65 6.66 3.3 7 5 C8.65 5.33 10.3 5.66 12 6 C12 6.66 12 7.32 12 8 C9.03 7.505 9.03 7.505 6 7 C6 6.34 6 5.68 6 5 C4.35 4.67 2.7 4.34 1 4 C0.67 2.68 0.34 1.36 0 0 Z " fill="#D1D0CC" transform="translate(234,314)"/>
<path d="M0 0 C0.33 0 0.66 0 1 0 C1 1.65 1 3.3 1 5 C1.33 4.01 1.66 3.02 2 2 C4.31 2 6.62 2 9 2 C9 3.32 9 4.64 9 6 C6.03 6 3.06 6 0 6 C0 4.02 0 2.04 0 0 Z " fill="#9E9D9A" transform="translate(282,235)"/>
<path d="M0 0 C4.875 0.875 4.875 0.875 6 2 C6.04092937 4.33297433 6.04241723 6.66705225 6 9 C3.69 9 1.38 9 -1 9 C-0.360625 8.71125 0.27875 8.4225 0.9375 8.125 C3.15206079 7.17176549 3.15206079 7.17176549 4 5 C3.01 4.67 2.02 4.34 1 4 C1.99 4 2.98 4 4 4 C4 3.34 4 2.68 4 2 C2.35 2 0.7 2 -1 2 C-0.67 1.34 -0.34 0.68 0 0 Z " fill="#313542" transform="translate(258,232)"/>
<path d="M0 0 C0.33 0 0.66 0 1 0 C1.1875 3.375 1.1875 3.375 1 7 C-2.66865241 9.44576827 -4.67200343 9.23607254 -9 9 C-9.66 8.67 -10.32 8.34 -11 8 C-11 7.34 -11 6.68 -11 6 C-8.98177083 6.03255208 -6.96354167 6.06510417 -4.9453125 6.09765625 C-2.91814596 6.12649242 -2.91814596 6.12649242 -1 5 C-0.34444881 2.47266765 -0.34444881 2.47266765 0 0 Z " fill="#131316" transform="translate(300,196)"/>
<path d="M0 0 C1.65 0 3.3 0 5 0 C4.67 2.64 4.34 5.28 4 8 C3.01 8 2.02 8 1 8 C0.67 5.36 0.34 2.72 0 0 Z " fill="#FCEFD3" transform="translate(190,26)"/>
<path d="M0 0 C1.67542976 0.28604898 3.34385343 0.61781233 5 1 C5 2.32 5 3.64 5 5 C3.35 5.33 1.7 5.66 0 6 C-0.38218767 4.34385343 -0.71395102 2.67542976 -1 1 C-0.67 0.67 -0.34 0.34 0 0 Z " fill="#F1F2F0" transform="translate(193,545)"/>
<path d="M0 0 C1.99954746 -0.04254356 4.00041636 -0.04080783 6 0 C7 1 7 1 7.0625 4.5625 C7.041875 5.696875 7.02125 6.83125 7 8 C6.67 8 6.34 8 6 8 C6 6.02 6 4.04 6 2 C4.68 2 3.36 2 2 2 C2 3.98 2 5.96 2 8 C1.34 8 0.68 8 0 8 C0 5.36 0 2.72 0 0 Z " fill="#F6C155" transform="translate(401,452)"/>
<path d="M0 0 C0.33 0 0.66 0 1 0 C1.9765625 6.0546875 1.9765625 6.0546875 2 8 C1.34 8.66 0.68 9.32 0 10 C0 9.34 0 8.68 0 8 C-1.32 8 -2.64 8 -4 8 C-3.4021799 4.65220745 -2.20964398 2.57791798 0 0 Z " fill="#A39CA5" transform="translate(80,346)"/>
<path d="M0 0 C0.33 0 0.66 0 1 0 C1.33 2.64 1.66 5.28 2 8 C3.94603274 8.59070014 3.94603274 8.59070014 6 9 C7.49743119 7.50256881 7.33202693 6.01175761 7.5625 3.9375 C7.706875 2.638125 7.85125 1.33875 8 0 C8.33 0 8.66 0 9 0 C9.02688151 1.64574566 9.04634123 3.29161413 9.0625 4.9375 C9.07410156 5.85402344 9.08570313 6.77054688 9.09765625 7.71484375 C9 10 9 10 8 11 C5.0625 11.1875 5.0625 11.1875 2 11 C0 9 0 9 -0.1953125 6.8359375 C-0.17210937 6.02382812 -0.14890625 5.21171875 -0.125 4.375 C-0.10695312 3.55773437 -0.08890625 2.74046875 -0.0703125 1.8984375 C-0.04710937 1.27195313 -0.02390625 0.64546875 0 0 Z " fill="#341920" transform="translate(210,230)"/>
<path d="M0 0 C1.98 0.495 1.98 0.495 4 1 C4 1.66 4 2.32 4 3 C3.34 3 2.68 3 2 3 C2.33 4.32 2.66 5.64 3 7 C4.32 7 5.64 7 7 7 C7 7.66 7 8.32 7 9 C5.02 9 3.04 9 1 9 C-1.125 2.25 -1.125 2.25 0 0 Z " fill="#EDC071" transform="translate(273,469)"/>
<path d="M0 0 C1.67542976 0.28604898 3.34385343 0.61781233 5 1 C4.67 2.32 4.34 3.64 4 5 C2.68 5.33 1.36 5.66 0 6 C-0.38218767 4.34385343 -0.71395102 2.67542976 -1 1 C-0.67 0.67 -0.34 0.34 0 0 Z " fill="#DFDFDA" transform="translate(281,316)"/>
<path d="M0 0 C2.625 0.375 2.625 0.375 5 1 C5 1.33 5 1.66 5 2 C3.35 2 1.7 2 0 2 C0.33 3.32 0.66 4.64 1 6 C2.32 6 3.64 6 5 6 C5 6.66 5 7.32 5 8 C3.00045254 8.04254356 0.99958364 8.04080783 -1 8 C-2 7 -2 7 -2.1875 4.5625 C-2 2 -2 2 0 0 Z " fill="#F6C35E" transform="translate(238,470)"/>
<path d="M0 0 C2.625 0.375 2.625 0.375 5 1 C5 1.33 5 1.66 5 2 C3.35 2 1.7 2 0 2 C0.33 3.32 0.66 4.64 1 6 C2.32 6 3.64 6 5 6 C5 6.66 5 7.32 5 8 C3.00045254 8.04254356 0.99958364 8.04080783 -1 8 C-2 7 -2 7 -2.1875 4.5625 C-2 2 -2 2 0 0 Z " fill="#F6C35E" transform="translate(230,470)"/>
<path d="M0 0 C3 3 3 3 4 5 C4.99 3.68 5.98 2.36 7 1 C6.5205537 5.21912747 5.83374881 7.79663178 3 11 C2.01 10.67 1.02 10.34 0 10 C0.66 9.67 1.32 9.34 2 9 C1.34 6.03 0.68 3.06 0 0 Z " fill="#93888A" transform="translate(279,452)"/>
<path d="M0 0 C3 3 3 3 4 5 C4.99 3.68 5.98 2.36 7 1 C6.5205537 5.21912747 5.83374881 7.79663178 3 11 C2.01 10.67 1.02 10.34 0 10 C0.66 9.67 1.32 9.34 2 9 C1.34 6.03 0.68 3.06 0 0 Z " fill="#93888A" transform="translate(82,452)"/>
<path d="M0 0 C0 3.51716303 -0.82445585 4.37121748 -3 7 C-1.68 7 -0.36 7 1 7 C1.33 6.01 1.66 5.02 2 4 C2 4.99 2 5.98 2 7 C2.66 7.33 3.32 7.66 4 8 C3.34 8 2.68 8 2 8 C1.67 8.99 1.34 9.98 1 11 C1 10.01 1 9.02 1 8 C-1.31 8 -3.62 8 -6 8 C-2.25 2.25 -2.25 2.25 0 0 Z " fill="#D1D0D2" transform="translate(317,541)"/>
<path d="M0 0 C2.0625 0.4375 2.0625 0.4375 4 1 C4 1.66 4 2.32 4 3 C3.34 3 2.68 3 2 3 C2 4.98 2 6.96 2 9 C2.99 9.33 3.98 9.66 5 10 C3.35 9.67 1.7 9.34 0 9 C-0.87890625 2.84765625 -0.87890625 2.84765625 -1 1 C-0.67 0.67 -0.34 0.34 0 0 Z " fill="#D6D6DA" transform="translate(253,542)"/>
<path d="M0 0 C-0.33 1.32 -0.66 2.64 -1 4 C-2.65 4.33 -4.3 4.66 -6 5 C-6.33 3.35 -6.66 1.7 -7 0 C-2.25 -1.125 -2.25 -1.125 0 0 Z " fill="#FCF5EE" transform="translate(245,472)"/>
<path d="M0 0 C-0.33 1.32 -0.66 2.64 -1 4 C-2.65 4.33 -4.3 4.66 -6 5 C-6.33 3.35 -6.66 1.7 -7 0 C-2.25 -1.125 -2.25 -1.125 0 0 Z " fill="#FCF5EE" transform="translate(237,472)"/>
<path d="M0 0 C3.3 0 6.6 0 10 0 C10 1.65 10 3.3 10 5 C9.34 4.67 8.68 4.34 8 4 C8.33 3.34 8.66 2.68 9 2 C6.69 2.33 4.38 2.66 2 3 C1.34 2.01 0.68 1.02 0 0 Z " fill="#E3ECF4" transform="translate(307,195)"/>
<path d="M0 0 C2.97 0 5.94 0 9 0 C9 2.64 9 5.28 9 8 C8.443125 7.195625 7.88625 6.39125 7.3125 5.5625 C4.78135513 2.75771784 3.67420866 2.30618405 0 2 C0 1.34 0 0.68 0 0 Z " fill="#160D06" transform="translate(292,187)"/>
<path d="M0 0 C1.32 0 2.64 0 4 0 C4 1.65 4 3.3 4 5 C2.68 5.33 1.36 5.66 0 6 C-0.38218767 4.34385343 -0.71395102 2.67542976 -1 1 C-0.67 0.67 -0.34 0.34 0 0 Z " fill="#F2F4F3" transform="translate(204,545)"/>
<path d="M0 0 C0.99 0.33 1.98 0.66 3 1 C3 1.99 3 2.98 3 4 C4.65 4.33 6.3 4.66 8 5 C8 5.66 8 6.32 8 7 C5.69 7.33 3.38 7.66 1 8 C0.67 5.36 0.34 2.72 0 0 Z " fill="#DBE0D9" transform="translate(230,315)"/>
<path d="M0 0 C1.98 0 3.96 0 6 0 C6 0.66 6 1.32 6 2 C5.01 2.33 4.02 2.66 3 3 C2.67 4.98 2.34 6.96 2 9 C1.34 9 0.68 9 0 9 C0 6.03 0 3.06 0 0 Z " fill="#876759" transform="translate(272,314)"/>
<path d="M0 0 C1.98 0 3.96 0 6 0 C6 0.66 6 1.32 6 2 C5.01 2.33 4.02 2.66 3 3 C2.67 4.98 2.34 6.96 2 9 C1.34 9 0.68 9 0 9 C0 6.03 0 3.06 0 0 Z " fill="#876759" transform="translate(239,232)"/>
<path d="M0 0 C0.99 0.33 1.98 0.66 3 1 C3 4.63 3 8.26 3 12 C2.34 12 1.68 12 1 12 C0.83126522 10.56274129 0.66509263 9.12518162 0.5 7.6875 C0.4071875 6.88699219 0.314375 6.08648437 0.21875 5.26171875 C0 3 0 3 0 0 Z " fill="#171433" transform="translate(245,188)"/>
<path d="M0 0 C1.65 0.33 3.3 0.66 5 1 C4.67 2.32 4.34 3.64 4 5 C2.35 4.67 0.7 4.34 -1 4 C-0.67 2.68 -0.34 1.36 0 0 Z " fill="#F3F4F2" transform="translate(233,545)"/>
<path d="M0 0 C1.98 0.495 1.98 0.495 4 1 C3.67 2.65 3.34 4.3 3 6 C1.68 5.67 0.36 5.34 -1 5 C-0.67 3.35 -0.34 1.7 0 0 Z " fill="#EAEEEB" transform="translate(265,316)"/>
<path d="M0 0 C-0.66 1.32 -1.32 2.64 -2 4 C-4.875 4.125 -4.875 4.125 -8 4 C-8.66 3.34 -9.32 2.68 -10 2 C-3.375 0 -3.375 0 0 0 Z " fill="#DBD9D5" transform="translate(223,199)"/>
<path d="M0 0 C0.66 0.33 1.32 0.66 2 1 C1.67 1.99 1.34 2.98 1 4 C-2.3125 4.6875 -2.3125 4.6875 -6 5 C-7.9375 3.5625 -7.9375 3.5625 -9 2 C-6.94921875 1.77213542 -4.8984375 1.54427083 -2.84765625 1.31640625 C-0.98859771 1.18113386 -0.98859771 1.18113386 0 0 Z " fill="#3C3329" transform="translate(222,195)"/>
<path d="M0 0 C1.65 0.33 3.3 0.66 5 1 C5.33 1.99 5.66 2.98 6 4 C3.36 4 0.72 4 -2 4 C-1.34 2.68 -0.68 1.36 0 0 Z " fill="#C7CAC8" transform="translate(309,189)"/>
<path d="M0 0 C-0.33 0.99 -0.66 1.98 -1 3 C-2.65 3.33 -4.3 3.66 -6 4 C-6.66 5.98 -7.32 7.96 -8 10 C-8.33 10 -8.66 10 -9 10 C-9.25 6.6875 -9.25 6.6875 -9 3 C-6.29148704 -0.10977414 -4.00164289 -0.33347024 0 0 Z " fill="#1E0F0B" transform="translate(206,187)"/>
<path d="M0 0 C0.99 0.33 1.98 0.66 3 1 C2.67 2.65 2.34 4.3 2 6 C0.68 5.67 -0.64 5.34 -2 5 C-2 3.68 -2 2.36 -2 1 C-1.34 0.67 -0.68 0.34 0 0 Z " fill="#F9FAF0" transform="translate(242,453)"/>
<path d="M0 0 C0.99 0.33 1.98 0.66 3 1 C2.67 2.65 2.34 4.3 2 6 C0.68 5.67 -0.64 5.34 -2 5 C-2 3.68 -2 2.36 -2 1 C-1.34 0.67 -0.68 0.34 0 0 Z " fill="#F9FAF0" transform="translate(126,453)"/>
<path d="M0 0 C0.99 0.33 1.98 0.66 3 1 C2.67 2.65 2.34 4.3 2 6 C0.68 5.67 -0.64 5.34 -2 5 C-2 3.68 -2 2.36 -2 1 C-1.34 0.67 -0.68 0.34 0 0 Z " fill="#F6FBF7" transform="translate(116,453)"/>
<path d="M0 0 C2.475 0.495 2.475 0.495 5 1 C5 2.32 5 3.64 5 5 C3.35 5 1.7 5 0 5 C0 3.35 0 1.7 0 0 Z " fill="#EEF0EE" transform="translate(215,313)"/>
<path d="M0 0 C0.99 0 1.98 0 3 0 C3 2.64 3 5.28 3 8 C2.01 7.67 1.02 7.34 0 7 C0 4.69 0 2.38 0 0 Z " fill="#A3B0B8" transform="translate(302,452)"/>
<path d="M0 0 C0.99 0 1.98 0 3 0 C3 2.64 3 5.28 3 8 C2.01 7.67 1.02 7.34 0 7 C0 4.69 0 2.38 0 0 Z " fill="#A3B0B8" transform="translate(105,452)"/>
<path d="M0 0 C1.98 0 3.96 0 6 0 C6.33 0.99 6.66 1.98 7 3 C4.36 3.33 1.72 3.66 -1 4 C-0.67 2.68 -0.34 1.36 0 0 Z " fill="#F6BE24" transform="translate(334,36)"/>
<path d="M0 0 C1.98 0 3.96 0 6 0 C6.33 0.99 6.66 1.98 7 3 C4.36 3.33 1.72 3.66 -1 4 C-0.67 2.68 -0.34 1.36 0 0 Z " fill="#F6BE24" transform="translate(114,36)"/>
<path d="M0 0 C0 0.66 0 1.32 0 2 C-0.99 2.495 -0.99 2.495 -2 3 C-2.65772428 6.02934491 -2.65772428 6.02934491 -3 9 C-3.66 9 -4.32 9 -5 9 C-5 6.36 -5 3.72 -5 1 C-2 0 -2 0 0 0 Z " fill="#D9D6D6" transform="translate(225,543)"/>
<path d="M0 0 C0 0.99 0 1.98 0 3 C-2.31 3.33 -4.62 3.66 -7 4 C-7 3.01 -7 2.02 -7 1 C-4.50935112 0.31292445 -2.62113708 0 0 0 Z " fill="#E1DFDB" transform="translate(299,199)"/>
<path d="M0 0 C1.65 0 3.3 0 5 0 C4.67 1.32 4.34 2.64 4 4 C2.35 4 0.7 4 -1 4 C-0.67 2.68 -0.34 1.36 0 0 Z " fill="#DFDBD2" transform="translate(278,194)"/>
<path d="M0 0 C2.97 0.495 2.97 0.495 6 1 C6 1.99 6 2.98 6 4 C4.02 4 2.04 4 0 4 C0 2.68 0 1.36 0 0 Z " fill="#D4CDC3" transform="translate(277,189)"/>
<path d="M0 0 C1.485 0.99 1.485 0.99 3 2 C2.67 3.98 2.34 5.96 2 8 C2.66 8.33 3.32 8.66 4 9 C2.68 8.67 1.36 8.34 0 8 C-0.38063221 5.6739143 -0.71269945 3.33944736 -1 1 C-0.67 0.67 -0.34 0.34 0 0 Z " fill="#8A818C" transform="translate(145,451)"/>
<path d="M0 0 C1.32 0 2.64 0 4 0 C4 0.66 4 1.32 4 2 C3.34 2 2.68 2 2 2 C2 3.98 2 5.96 2 8 C1.34 8 0.68 8 0 8 C0 5.36 0 2.72 0 0 Z " fill="#F6C45E" transform="translate(348,452)"/>
<path d="M0 0 C2.0625 0.4375 2.0625 0.4375 4 1 C4 1.66 4 2.32 4 3 C3.01 3 2.02 3 1 3 C1 4.65 1 6.3 1 8 C1.99 8.33 2.98 8.66 4 9 C2.68 9 1.36 9 0 9 C-0.87890625 2.84765625 -0.87890625 2.84765625 -1 1 C-0.67 0.67 -0.34 0.34 0 0 Z " fill="#F6C24B" transform="translate(371,451)"/>
<path d="M0 0 C2.625 -0.1875 2.625 -0.1875 5 0 C5.33 0.99 5.66 1.98 6 3 C3.36 3 0.72 3 -2 3 C-1.34 2.01 -0.68 1.02 0 0 Z " fill="#F5BA14" transform="translate(264,82)"/>
<path d="M0 0 C2.475 0.495 2.475 0.495 5 1 C4.34 2.32 3.68 3.64 3 5 C2.01 4.67 1.02 4.34 0 4 C0 2.68 0 1.36 0 0 Z " fill="#FDF5DD" transform="translate(251,72)"/>
<path d="M0 0 C1.98 0 3.96 0 6 0 C6 0.99 6 1.98 6 3 C3.69 3 1.38 3 -1 3 C-0.67 2.01 -0.34 1.02 0 0 Z " fill="#F5BB18" transform="translate(177,36)"/>
<path d="M0 0 C2.0625 0.4375 2.0625 0.4375 4 1 C4 1.99 4 2.98 4 4 C2.68 4.33 1.36 4.66 0 5 C-0.5625 3.0625 -0.5625 3.0625 -1 1 C-0.67 0.67 -0.34 0.34 0 0 Z " fill="#FDF5DE" transform="translate(367,26)"/>
<path d="M0 0 C2.0625 0.4375 2.0625 0.4375 4 1 C4 1.99 4 2.98 4 4 C2.68 4.33 1.36 4.66 0 5 C-0.5625 3.0625 -0.5625 3.0625 -1 1 C-0.67 0.67 -0.34 0.34 0 0 Z " fill="#FDF5DE" transform="translate(165,26)"/>
<path d="M0 0 C1.32 0 2.64 0 4 0 C3.67 1.65 3.34 3.3 3 5 C2.01 5 1.02 5 0 5 C0 3.35 0 1.7 0 0 Z " fill="#FCF6F0" transform="translate(246,472)"/>
<path d="M0 0 C1.32 0 2.64 0 4 0 C4 1.65 4 3.3 4 5 C2.68 4.67 1.36 4.34 0 4 C0 2.68 0 1.36 0 0 Z " fill="#FEFDFA" transform="translate(289,454)"/>
<path d="M0 0 C1.32 0 2.64 0 4 0 C4 1.65 4 3.3 4 5 C2.68 4.67 1.36 4.34 0 4 C0 2.68 0 1.36 0 0 Z " fill="#FEFDFA" transform="translate(92,454)"/>
<path d="M0 0 C0.99 0.33 1.98 0.66 3 1 C2.67 2.65 2.34 4.3 2 6 C1.01 5.67 0.02 5.34 -1 5 C-0.67 3.35 -0.34 1.7 0 0 Z " fill="#F7C418" transform="translate(243,406)"/>
<path d="M0 0 C1.65 0.33 3.3 0.66 5 1 C4.67 1.99 4.34 2.98 4 4 C2.35 4 0.7 4 -1 4 C-0.67 2.68 -0.34 1.36 0 0 Z " fill="#928D85" transform="translate(257,236)"/>
<path d="M0 0 C1.98 0 3.96 0 6 0 C6 1.98 6 3.96 6 6 C5.67 5.01 5.34 4.02 5 3 C3.35 2.67 1.7 2.34 0 2 C0 1.34 0 0.68 0 0 Z " fill="#C2D6E4" transform="translate(242,316)"/>
<path d="M0 0 C0.2475 0.598125 0.495 1.19625 0.75 1.8125 C2.16370012 4.28647521 3.65055383 5.43370255 6 7 C2.25 8.125 2.25 8.125 0 7 C0 4.69 0 2.38 0 0 Z " fill="#131A2B" transform="translate(198,192)"/>
<path d="M0 0 C0.66 0 1.32 0 2 0 C2 2.64 2 5.28 2 8 C1.01 7.67 0.02 7.34 -1 7 C-0.67 4.69 -0.34 2.38 0 0 Z " fill="#9682A7" transform="translate(254,452)"/>
<path d="M0 0 C0.99 0 1.98 0 3 0 C3 1.98 3 3.96 3 6 C2.01 5.67 1.02 5.34 0 5 C0 3.35 0 1.7 0 0 Z " fill="#F0F8F5" transform="translate(61,267)"/>
<path d="M0 0 C1.32 0.33 2.64 0.66 4 1 C4 2.98 4 4.96 4 7 C3.01 6.67 2.02 6.34 1 6 C0.67 4.02 0.34 2.04 0 0 Z " fill="#24110F" transform="translate(268,185)"/>
</svg>
